<svg width="779" height="344" viewBox="0 0 779 344" fill="none" xmlns="http://www.w3.org/2000/svg">
<g clip-path="url(#clip0)">
<g filter="url(#filter0_dd)">
<rect x="54" y="54" width="671" height="236" fill="#282828"/>
<path d="M101.373 136V122.492H105.362C106.556 122.492 107.614 122.758 108.535 123.29C109.463 123.822 110.18 124.576 110.688 125.554C111.195 126.531 111.448 127.65 111.448 128.912V129.589C111.448 130.87 111.192 131.995 110.678 132.966C110.171 133.937 109.444 134.686 108.498 135.211C107.558 135.737 106.479 136 105.26 136H101.373ZM103.72 124.385V134.126H105.251C106.482 134.126 107.425 133.743 108.081 132.976C108.742 132.202 109.079 131.095 109.092 129.654V128.903C109.092 127.437 108.773 126.318 108.136 125.544C107.499 124.771 106.575 124.385 105.362 124.385H103.72ZM113.146 130.888C113.146 129.905 113.341 129.02 113.73 128.235C114.12 127.443 114.667 126.837 115.373 126.417C116.078 125.99 116.888 125.776 117.803 125.776C119.158 125.776 120.256 126.212 121.097 127.084C121.944 127.957 122.402 129.113 122.47 130.554L122.479 131.083C122.479 132.073 122.287 132.957 121.904 133.736C121.527 134.516 120.982 135.119 120.271 135.545C119.566 135.972 118.75 136.186 117.822 136.186C116.405 136.186 115.271 135.715 114.417 134.775C113.57 133.829 113.146 132.57 113.146 131V130.888ZM115.4 131.083C115.4 132.116 115.614 132.926 116.041 133.514C116.467 134.095 117.061 134.386 117.822 134.386C118.583 134.386 119.173 134.089 119.594 133.495C120.021 132.901 120.234 132.032 120.234 130.888C120.234 129.874 120.014 129.07 119.575 128.476C119.142 127.882 118.552 127.585 117.803 127.585C117.067 127.585 116.483 127.879 116.05 128.467C115.617 129.048 115.4 129.92 115.4 131.083ZM133.742 128.894L136.85 122.492H139.447L134.92 131.027V136H132.563V131.027L128.027 122.492H130.634L133.742 128.894ZM139.661 130.888C139.661 129.905 139.855 129.02 140.245 128.235C140.635 127.443 141.182 126.837 141.887 126.417C142.592 125.99 143.403 125.776 144.318 125.776C145.672 125.776 146.77 126.212 147.611 127.084C148.459 127.957 148.916 129.113 148.984 130.554L148.994 131.083C148.994 132.073 148.802 132.957 148.418 133.736C148.041 134.516 147.497 135.119 146.786 135.545C146.081 135.972 145.264 136.186 144.336 136.186C142.92 136.186 141.785 135.715 140.932 134.775C140.084 133.829 139.661 132.57 139.661 131V130.888ZM141.915 131.083C141.915 132.116 142.128 132.926 142.555 133.514C142.982 134.095 143.576 134.386 144.336 134.386C145.097 134.386 145.688 134.089 146.108 133.495C146.535 132.901 146.749 132.032 146.749 130.888C146.749 129.874 146.529 129.07 146.09 128.476C145.657 127.882 145.066 127.585 144.318 127.585C143.582 127.585 142.997 127.879 142.564 128.467C142.132 129.048 141.915 129.92 141.915 131.083ZM156.981 135.017C156.32 135.796 155.38 136.186 154.161 136.186C153.073 136.186 152.247 135.867 151.684 135.23C151.127 134.593 150.849 133.671 150.849 132.465V125.962H153.104V132.438C153.104 133.712 153.632 134.349 154.69 134.349C155.785 134.349 156.524 133.956 156.907 133.17V125.962H159.162V136H157.037L156.981 135.017ZM175.007 132.892L176.603 125.962H178.802L176.065 136H174.209L172.057 129.107L169.942 136H168.086L165.34 125.962H167.539L169.163 132.818L171.222 125.962H172.92L175.007 132.892ZM186.307 136C186.208 135.808 186.122 135.496 186.047 135.063C185.33 135.811 184.452 136.186 183.413 136.186C182.404 136.186 181.582 135.898 180.945 135.323C180.308 134.748 179.989 134.036 179.989 133.189C179.989 132.119 180.385 131.299 181.177 130.73C181.975 130.155 183.113 129.868 184.591 129.868H185.973V129.209C185.973 128.689 185.828 128.275 185.537 127.966C185.246 127.65 184.804 127.493 184.21 127.493C183.697 127.493 183.277 127.623 182.949 127.882C182.621 128.136 182.457 128.461 182.457 128.856H180.203C180.203 128.306 180.385 127.793 180.75 127.316C181.115 126.834 181.61 126.457 182.234 126.185C182.865 125.912 183.567 125.776 184.34 125.776C185.515 125.776 186.452 126.073 187.151 126.667C187.85 127.255 188.209 128.083 188.228 129.153V133.681C188.228 134.584 188.354 135.304 188.608 135.842V136H186.307ZM183.83 134.376C184.275 134.376 184.693 134.268 185.083 134.052C185.478 133.835 185.775 133.545 185.973 133.18V131.287H184.758C183.923 131.287 183.295 131.432 182.875 131.723C182.454 132.014 182.244 132.425 182.244 132.957C182.244 133.39 182.386 133.736 182.67 133.996C182.961 134.25 183.348 134.376 183.83 134.376ZM192.681 125.962L192.746 127.122C193.488 126.225 194.462 125.776 195.668 125.776C197.758 125.776 198.822 126.973 198.859 129.367V136H196.605V129.497C196.605 128.86 196.466 128.389 196.188 128.086C195.915 127.777 195.467 127.623 194.842 127.623C193.933 127.623 193.256 128.034 192.811 128.856V136H190.556V125.962H192.681ZM208.721 123.522V125.962H210.493V127.632H208.721V133.235C208.721 133.619 208.795 133.897 208.944 134.07C209.098 134.237 209.371 134.321 209.76 134.321C210.02 134.321 210.283 134.29 210.549 134.228V135.972C210.035 136.114 209.541 136.186 209.064 136.186C207.333 136.186 206.467 135.23 206.467 133.319V127.632H204.815V125.962H206.467V123.522H208.721ZM211.523 130.888C211.523 129.905 211.718 129.02 212.107 128.235C212.497 127.443 213.044 126.837 213.75 126.417C214.455 125.99 215.265 125.776 216.18 125.776C217.535 125.776 218.632 126.212 219.474 127.084C220.321 127.957 220.779 129.113 220.847 130.554L220.856 131.083C220.856 132.073 220.664 132.957 220.281 133.736C219.903 134.516 219.359 135.119 218.648 135.545C217.943 135.972 217.126 136.186 216.199 136.186C214.782 136.186 213.647 135.715 212.794 134.775C211.947 133.829 211.523 132.57 211.523 131V130.888ZM213.777 131.083C213.777 132.116 213.991 132.926 214.417 133.514C214.844 134.095 215.438 134.386 216.199 134.386C216.959 134.386 217.55 134.089 217.971 133.495C218.397 132.901 218.611 132.032 218.611 130.888C218.611 129.874 218.391 129.07 217.952 128.476C217.519 127.882 216.929 127.585 216.18 127.585C215.444 127.585 214.86 127.879 214.427 128.467C213.994 129.048 213.777 129.92 213.777 131.083ZM231.618 134.386C232.181 134.386 232.647 134.222 233.019 133.894C233.39 133.566 233.588 133.161 233.612 132.679H235.737C235.712 133.303 235.517 133.888 235.152 134.432C234.787 134.97 234.293 135.397 233.668 135.712C233.043 136.028 232.369 136.186 231.646 136.186C230.242 136.186 229.128 135.731 228.306 134.822C227.483 133.913 227.072 132.657 227.072 131.055V130.823C227.072 129.296 227.48 128.074 228.296 127.159C229.113 126.237 230.226 125.776 231.636 125.776C232.83 125.776 233.801 126.126 234.549 126.825C235.304 127.517 235.7 128.43 235.737 129.562H233.612C233.588 128.986 233.39 128.513 233.019 128.142C232.654 127.771 232.187 127.585 231.618 127.585C230.888 127.585 230.325 127.851 229.929 128.383C229.533 128.909 229.332 129.71 229.326 130.786V131.148C229.326 132.236 229.521 133.05 229.911 133.588C230.306 134.12 230.875 134.386 231.618 134.386ZM242.695 128.021C242.398 127.972 242.092 127.947 241.776 127.947C240.743 127.947 240.048 128.343 239.689 129.135V136H237.435V125.962H239.587L239.643 127.084C240.187 126.212 240.941 125.776 241.906 125.776C242.228 125.776 242.494 125.82 242.704 125.906L242.695 128.021ZM249.838 136C249.739 135.808 249.653 135.496 249.579 135.063C248.861 135.811 247.983 136.186 246.944 136.186C245.936 136.186 245.113 135.898 244.476 135.323C243.839 134.748 243.521 134.036 243.521 133.189C243.521 132.119 243.916 131.299 244.708 130.73C245.506 130.155 246.644 129.868 248.122 129.868H249.504V129.209C249.504 128.689 249.359 128.275 249.068 127.966C248.778 127.65 248.335 127.493 247.742 127.493C247.228 127.493 246.808 127.623 246.48 127.882C246.152 128.136 245.988 128.461 245.988 128.856H243.734C243.734 128.306 243.916 127.793 244.281 127.316C244.646 126.834 245.141 126.457 245.766 126.185C246.396 125.912 247.098 125.776 247.872 125.776C249.047 125.776 249.984 126.073 250.683 126.667C251.382 127.255 251.74 128.083 251.759 129.153V133.681C251.759 134.584 251.886 135.304 252.139 135.842V136H249.838ZM247.361 134.376C247.807 134.376 248.224 134.268 248.614 134.052C249.01 133.835 249.306 133.545 249.504 133.18V131.287H248.289C247.454 131.287 246.826 131.432 246.406 131.723C245.985 132.014 245.775 132.425 245.775 132.957C245.775 133.39 245.917 133.736 246.202 133.996C246.492 134.25 246.879 134.376 247.361 134.376ZM259.747 133.272C259.747 132.87 259.58 132.564 259.246 132.354C258.918 132.144 258.37 131.958 257.604 131.797C256.837 131.637 256.196 131.432 255.683 131.185C254.557 130.641 253.995 129.852 253.995 128.819C253.995 127.953 254.36 127.23 255.089 126.648C255.819 126.067 256.747 125.776 257.873 125.776C259.072 125.776 260.04 126.073 260.776 126.667C261.519 127.261 261.89 128.031 261.89 128.977H259.635C259.635 128.544 259.474 128.185 259.153 127.901C258.831 127.61 258.404 127.465 257.873 127.465C257.378 127.465 256.973 127.579 256.657 127.808C256.348 128.037 256.193 128.343 256.193 128.727C256.193 129.073 256.339 129.342 256.629 129.534C256.92 129.725 257.508 129.92 258.392 130.118C259.277 130.31 259.969 130.542 260.47 130.814C260.977 131.08 261.352 131.402 261.593 131.779C261.84 132.156 261.964 132.614 261.964 133.152C261.964 134.055 261.59 134.788 260.841 135.351C260.093 135.907 259.113 136.186 257.9 136.186C257.078 136.186 256.345 136.037 255.702 135.74C255.058 135.443 254.557 135.035 254.199 134.516C253.84 133.996 253.661 133.436 253.661 132.836H255.85C255.881 133.368 256.082 133.78 256.453 134.07C256.824 134.355 257.316 134.497 257.928 134.497C258.522 134.497 258.973 134.386 259.283 134.163C259.592 133.934 259.747 133.637 259.747 133.272ZM266.157 127.057C266.893 126.203 267.824 125.776 268.95 125.776C271.09 125.776 272.175 126.998 272.206 129.441V136H269.952V129.524C269.952 128.832 269.8 128.343 269.497 128.059C269.2 127.768 268.761 127.623 268.18 127.623C267.277 127.623 266.603 128.025 266.157 128.829V136H263.903V121.75H266.157V127.057ZM282.736 132.771L284.777 125.962H287.18L283.19 137.521C282.578 139.21 281.539 140.054 280.073 140.054C279.745 140.054 279.384 139.999 278.988 139.887V138.143L279.415 138.171C279.984 138.171 280.41 138.066 280.695 137.855C280.986 137.651 281.214 137.305 281.381 136.816L281.706 135.954L278.181 125.962H280.611L282.736 132.771ZM287.913 130.888C287.913 129.905 288.107 129.02 288.497 128.235C288.887 127.443 289.434 126.837 290.139 126.417C290.844 125.99 291.654 125.776 292.57 125.776C293.924 125.776 295.022 126.212 295.863 127.084C296.711 127.957 297.168 129.113 297.236 130.554L297.246 131.083C297.246 132.073 297.054 132.957 296.67 133.736C296.293 134.516 295.749 135.119 295.038 135.545C294.333 135.972 293.516 136.186 292.588 136.186C291.172 136.186 290.037 135.715 289.184 134.775C288.336 133.829 287.913 132.57 287.913 131V130.888ZM290.167 131.083C290.167 132.116 290.38 132.926 290.807 133.514C291.234 134.095 291.828 134.386 292.588 134.386C293.349 134.386 293.94 134.089 294.36 133.495C294.787 132.901 295 132.032 295 130.888C295 129.874 294.781 129.07 294.342 128.476C293.909 127.882 293.318 127.585 292.57 127.585C291.834 127.585 291.249 127.879 290.816 128.467C290.383 129.048 290.167 129.92 290.167 131.083ZM305.233 135.017C304.572 135.796 303.632 136.186 302.413 136.186C301.325 136.186 300.499 135.867 299.936 135.23C299.379 134.593 299.101 133.671 299.101 132.465V125.962H301.355V132.438C301.355 133.712 301.884 134.349 302.942 134.349C304.037 134.349 304.776 133.956 305.159 133.17V125.962H307.414V136H305.289L305.233 135.017ZM314.965 128.021C314.668 127.972 314.362 127.947 314.047 127.947C313.014 127.947 312.318 128.343 311.959 129.135V136H309.705V125.962H311.857L311.913 127.084C312.457 126.212 313.212 125.776 314.177 125.776C314.498 125.776 314.764 125.82 314.975 125.906L314.965 128.021ZM331.934 132.66L334.012 122.492H336.34L333.223 136H330.978L328.408 126.138L325.783 136H323.528L320.411 122.492H322.74L324.836 132.642L327.416 122.492H329.382L331.934 132.66ZM340.237 136H337.982V125.962H340.237V136ZM337.843 123.355C337.843 123.009 337.951 122.721 338.168 122.492C338.391 122.263 338.706 122.149 339.114 122.149C339.522 122.149 339.838 122.263 340.061 122.492C340.283 122.721 340.395 123.009 340.395 123.355C340.395 123.695 340.283 123.98 340.061 124.208C339.838 124.431 339.522 124.542 339.114 124.542C338.706 124.542 338.391 124.431 338.168 124.208C337.951 123.98 337.843 123.695 337.843 123.355ZM344.792 125.962L344.857 127.122C345.599 126.225 346.573 125.776 347.779 125.776C349.87 125.776 350.934 126.973 350.971 129.367V136H348.716V129.497C348.716 128.86 348.577 128.389 348.299 128.086C348.027 127.777 347.578 127.623 346.954 127.623C346.044 127.623 345.367 128.034 344.922 128.856V136H342.667V125.962H344.792ZM352.854 130.907C352.854 129.361 353.213 128.12 353.93 127.187C354.648 126.246 355.609 125.776 356.815 125.776C357.879 125.776 358.739 126.147 359.395 126.89V121.75H361.649V136H359.608L359.497 134.961C358.822 135.777 357.923 136.186 356.797 136.186C355.622 136.186 354.669 135.712 353.939 134.766C353.216 133.82 352.854 132.533 352.854 130.907ZM355.108 131.102C355.108 132.122 355.303 132.92 355.693 133.495C356.089 134.064 356.648 134.349 357.372 134.349C358.294 134.349 358.968 133.937 359.395 133.115V128.829C358.98 128.025 358.312 127.623 357.391 127.623C356.661 127.623 356.098 127.913 355.702 128.495C355.306 129.07 355.108 129.939 355.108 131.102ZM363.579 130.888C363.579 129.905 363.773 129.02 364.163 128.235C364.553 127.443 365.1 126.837 365.805 126.417C366.51 125.99 367.32 125.776 368.236 125.776C369.59 125.776 370.688 126.212 371.529 127.084C372.377 127.957 372.834 129.113 372.902 130.554L372.912 131.083C372.912 132.073 372.72 132.957 372.336 133.736C371.959 134.516 371.415 135.119 370.704 135.545C369.999 135.972 369.182 136.186 368.254 136.186C366.838 136.186 365.703 135.715 364.85 134.775C364.002 133.829 363.579 132.57 363.579 131V130.888ZM365.833 131.083C365.833 132.116 366.046 132.926 366.473 133.514C366.9 134.095 367.494 134.386 368.254 134.386C369.015 134.386 369.606 134.089 370.026 133.495C370.453 132.901 370.667 132.032 370.667 130.888C370.667 129.874 370.447 129.07 370.008 128.476C369.575 127.882 368.984 127.585 368.236 127.585C367.5 127.585 366.915 127.879 366.482 128.467C366.049 129.048 365.833 129.92 365.833 131.083ZM383.636 132.892L385.232 125.962H387.431L384.694 136H382.838L380.686 129.107L378.571 136H376.715L373.969 125.962H376.168L377.792 132.818L379.851 125.962H381.549L383.636 132.892ZM394.565 133.272C394.565 132.87 394.398 132.564 394.064 132.354C393.736 132.144 393.189 131.958 392.422 131.797C391.655 131.637 391.015 131.432 390.501 131.185C389.376 130.641 388.813 129.852 388.813 128.819C388.813 127.953 389.178 127.23 389.908 126.648C390.638 126.067 391.565 125.776 392.691 125.776C393.891 125.776 394.859 126.073 395.595 126.667C396.337 127.261 396.708 128.031 396.708 128.977H394.454C394.454 128.544 394.293 128.185 393.971 127.901C393.65 127.61 393.223 127.465 392.691 127.465C392.196 127.465 391.791 127.579 391.476 127.808C391.166 128.037 391.012 128.343 391.012 128.727C391.012 129.073 391.157 129.342 391.448 129.534C391.738 129.725 392.326 129.92 393.21 130.118C394.095 130.31 394.788 130.542 395.289 130.814C395.796 131.08 396.17 131.402 396.411 131.779C396.659 132.156 396.782 132.614 396.782 133.152C396.782 134.055 396.408 134.788 395.66 135.351C394.911 135.907 393.931 136.186 392.719 136.186C391.896 136.186 391.163 136.037 390.52 135.74C389.877 135.443 389.376 135.035 389.017 134.516C388.658 133.996 388.479 133.436 388.479 132.836H390.668C390.699 133.368 390.9 133.78 391.271 134.07C391.643 134.355 392.134 134.497 392.747 134.497C393.34 134.497 393.792 134.386 394.101 134.163C394.41 133.934 394.565 133.637 394.565 133.272ZM406.05 130.981V136H403.703V122.492H408.871C410.38 122.492 411.576 122.885 412.461 123.67C413.352 124.456 413.797 125.495 413.797 126.788C413.797 128.111 413.361 129.141 412.489 129.877C411.623 130.613 410.408 130.981 408.843 130.981H406.05ZM406.05 129.098H408.871C409.706 129.098 410.343 128.903 410.782 128.513C411.221 128.117 411.44 127.548 411.44 126.806C411.44 126.076 411.218 125.495 410.772 125.062C410.327 124.623 409.715 124.397 408.936 124.385H406.05V129.098ZM426.164 131.603C426.028 133.044 425.496 134.169 424.568 134.979C423.64 135.784 422.406 136.186 420.866 136.186C419.79 136.186 418.841 135.932 418.018 135.425C417.202 134.911 416.571 134.185 416.125 133.245C415.68 132.305 415.448 131.213 415.43 129.97V128.708C415.43 127.434 415.655 126.311 416.107 125.34C416.558 124.369 417.205 123.621 418.046 123.095C418.893 122.569 419.87 122.307 420.978 122.307C422.468 122.307 423.668 122.712 424.577 123.522C425.486 124.332 426.015 125.476 426.164 126.955H423.826C423.714 125.984 423.43 125.285 422.972 124.858C422.521 124.425 421.856 124.208 420.978 124.208C419.957 124.208 419.172 124.583 418.621 125.331C418.077 126.073 417.799 127.165 417.786 128.606V129.803C417.786 131.262 418.046 132.376 418.565 133.143C419.091 133.91 419.858 134.293 420.866 134.293C421.788 134.293 422.48 134.086 422.944 133.671C423.408 133.257 423.702 132.567 423.826 131.603H426.164ZM430.144 132.029C430.144 131.207 430.246 130.551 430.45 130.062C430.654 129.574 431.056 129.039 431.656 128.458C432.262 127.87 432.645 127.452 432.806 127.205C433.054 126.828 433.177 126.42 433.177 125.98C433.177 125.399 433.032 124.957 432.741 124.654C432.457 124.345 432.036 124.19 431.479 124.19C430.948 124.19 430.518 124.341 430.19 124.645C429.868 124.941 429.708 125.347 429.708 125.86H427.453C427.465 124.765 427.837 123.899 428.566 123.262C429.302 122.625 430.273 122.307 431.479 122.307C432.723 122.307 433.691 122.622 434.383 123.253C435.082 123.884 435.432 124.765 435.432 125.897C435.432 126.905 434.962 127.898 434.021 128.875L432.88 129.998C432.472 130.461 432.262 131.139 432.25 132.029H430.144ZM429.986 134.915C429.986 134.55 430.1 134.256 430.329 134.033C430.558 133.804 430.867 133.69 431.257 133.69C431.653 133.69 431.965 133.807 432.194 134.042C432.423 134.271 432.537 134.562 432.537 134.915C432.537 135.255 432.426 135.539 432.203 135.768C431.98 135.997 431.665 136.111 431.257 136.111C430.849 136.111 430.533 135.997 430.311 135.768C430.094 135.539 429.986 135.255 429.986 134.915ZM451.444 124.385H447.232V136H444.904V124.385H440.729V122.492H451.444V124.385ZM455.229 127.057C455.965 126.203 456.896 125.776 458.022 125.776C460.162 125.776 461.247 126.998 461.278 129.441V136H459.024V129.524C459.024 128.832 458.872 128.343 458.569 128.059C458.272 127.768 457.833 127.623 457.252 127.623C456.349 127.623 455.675 128.025 455.229 128.829V136H452.975V121.75H455.229V127.057ZM467.986 136.186C466.557 136.186 465.397 135.737 464.507 134.84C463.622 133.937 463.18 132.737 463.18 131.241V130.962C463.18 129.96 463.372 129.067 463.755 128.281C464.145 127.49 464.689 126.874 465.388 126.435C466.087 125.996 466.866 125.776 467.726 125.776C469.093 125.776 470.147 126.212 470.89 127.084C471.638 127.957 472.012 129.19 472.012 130.786V131.695H465.453C465.521 132.524 465.796 133.18 466.279 133.662C466.767 134.145 467.38 134.386 468.116 134.386C469.149 134.386 469.99 133.968 470.639 133.133L471.854 134.293C471.452 134.893 470.914 135.36 470.24 135.694C469.572 136.022 468.821 136.186 467.986 136.186ZM467.717 127.585C467.098 127.585 466.597 127.802 466.214 128.235C465.837 128.668 465.595 129.271 465.49 130.044H469.786V129.877C469.736 129.122 469.535 128.553 469.183 128.17C468.83 127.78 468.341 127.585 467.717 127.585ZM475.862 125.962L475.927 127.122C476.669 126.225 477.644 125.776 478.85 125.776C480.94 125.776 482.004 126.973 482.041 129.367V136H479.787V129.497C479.787 128.86 479.647 128.389 479.369 128.086C479.097 127.777 478.649 127.623 478.024 127.623C477.115 127.623 476.438 128.034 475.992 128.856V136H473.738V125.962H475.862ZM499.603 131.603C499.467 133.044 498.935 134.169 498.007 134.979C497.08 135.784 495.846 136.186 494.306 136.186C493.229 136.186 492.28 135.932 491.458 135.425C490.641 134.911 490.01 134.185 489.565 133.245C489.12 132.305 488.888 131.213 488.869 129.97V128.708C488.869 127.434 489.095 126.311 489.546 125.34C489.998 124.369 490.644 123.621 491.485 123.095C492.333 122.569 493.31 122.307 494.417 122.307C495.908 122.307 497.107 122.712 498.017 123.522C498.926 124.332 499.455 125.476 499.603 126.955H497.265C497.154 125.984 496.869 125.285 496.412 124.858C495.96 124.425 495.295 124.208 494.417 124.208C493.396 124.208 492.611 124.583 492.061 125.331C491.516 126.073 491.238 127.165 491.226 128.606V129.803C491.226 131.262 491.485 132.376 492.005 133.143C492.531 133.91 493.298 134.293 494.306 134.293C495.227 134.293 495.92 134.086 496.384 133.671C496.848 133.257 497.141 132.567 497.265 131.603H499.603ZM503.889 136H501.635V121.75H503.889V136ZM508.75 136H506.496V125.962H508.75V136ZM506.357 123.355C506.357 123.009 506.465 122.721 506.682 122.492C506.904 122.263 507.22 122.149 507.628 122.149C508.036 122.149 508.352 122.263 508.574 122.492C508.797 122.721 508.908 123.009 508.908 123.355C508.908 123.695 508.797 123.98 508.574 124.208C508.352 124.431 508.036 124.542 507.628 124.542C507.22 124.542 506.904 124.431 506.682 124.208C506.465 123.98 506.357 123.695 506.357 123.355ZM515.337 134.386C515.9 134.386 516.367 134.222 516.738 133.894C517.109 133.566 517.307 133.161 517.332 132.679H519.457C519.432 133.303 519.237 133.888 518.872 134.432C518.507 134.97 518.012 135.397 517.388 135.712C516.763 136.028 516.089 136.186 515.365 136.186C513.961 136.186 512.848 135.731 512.025 134.822C511.203 133.913 510.792 132.657 510.792 131.055V130.823C510.792 129.296 511.2 128.074 512.016 127.159C512.833 126.237 513.946 125.776 515.356 125.776C516.55 125.776 517.521 126.126 518.269 126.825C519.024 127.517 519.419 128.43 519.457 129.562H517.332C517.307 128.986 517.109 128.513 516.738 128.142C516.373 127.771 515.906 127.585 515.337 127.585C514.608 127.585 514.045 127.851 513.649 128.383C513.253 128.909 513.052 129.71 513.046 130.786V131.148C513.046 132.236 513.241 133.05 513.63 133.588C514.026 134.12 514.595 134.386 515.337 134.386ZM524.42 131.695L523.418 132.725V136H521.164V121.75H523.418V129.97L524.123 129.088L526.897 125.962H529.606L525.876 130.146L530.005 136H527.398L524.42 131.695ZM111.68 153.603C111.544 155.044 111.012 156.169 110.084 156.979C109.157 157.784 107.923 158.186 106.383 158.186C105.307 158.186 104.357 157.932 103.535 157.425C102.718 156.911 102.087 156.185 101.642 155.245C101.197 154.305 100.965 153.213 100.946 151.97V150.708C100.946 149.434 101.172 148.311 101.624 147.34C102.075 146.369 102.721 145.621 103.562 145.095C104.41 144.569 105.387 144.307 106.494 144.307C107.985 144.307 109.185 144.712 110.094 145.522C111.003 146.332 111.532 147.476 111.68 148.955H109.342C109.231 147.984 108.946 147.285 108.489 146.858C108.037 146.425 107.372 146.208 106.494 146.208C105.474 146.208 104.688 146.583 104.138 147.331C103.593 148.073 103.315 149.165 103.303 150.606V151.803C103.303 153.262 103.562 154.376 104.082 155.143C104.608 155.91 105.375 156.293 106.383 156.293C107.304 156.293 107.997 156.086 108.461 155.671C108.925 155.257 109.219 154.567 109.342 153.603H111.68ZM113.146 152.888C113.146 151.905 113.341 151.02 113.73 150.235C114.12 149.443 114.667 148.837 115.373 148.417C116.078 147.99 116.888 147.776 117.803 147.776C119.158 147.776 120.256 148.212 121.097 149.084C121.944 149.957 122.402 151.113 122.47 152.554L122.479 153.083C122.479 154.073 122.287 154.957 121.904 155.736C121.527 156.516 120.982 157.119 120.271 157.545C119.566 157.972 118.75 158.186 117.822 158.186C116.405 158.186 115.271 157.715 114.417 156.775C113.57 155.829 113.146 154.57 113.146 153V152.888ZM115.4 153.083C115.4 154.116 115.614 154.926 116.041 155.514C116.467 156.095 117.061 156.386 117.822 156.386C118.583 156.386 119.173 156.089 119.594 155.495C120.021 154.901 120.234 154.032 120.234 152.888C120.234 151.874 120.014 151.07 119.575 150.476C119.142 149.882 118.552 149.585 117.803 149.585C117.067 149.585 116.483 149.879 116.05 150.467C115.617 151.048 115.4 151.92 115.4 153.083ZM126.478 147.962L126.542 149.122C127.285 148.225 128.259 147.776 129.465 147.776C131.555 147.776 132.619 148.973 132.656 151.367V158H130.402V151.497C130.402 150.86 130.263 150.389 129.984 150.086C129.712 149.777 129.264 149.623 128.639 149.623C127.73 149.623 127.053 150.034 126.607 150.856V158H124.353V147.962H126.478ZM137.787 145.522V147.962H139.559V149.632H137.787V155.235C137.787 155.619 137.861 155.897 138.009 156.07C138.164 156.237 138.436 156.321 138.826 156.321C139.085 156.321 139.348 156.29 139.614 156.228V157.972C139.101 158.114 138.606 158.186 138.13 158.186C136.398 158.186 135.532 157.23 135.532 155.319V149.632H133.881V147.962H135.532V145.522H137.787ZM143.687 158H141.433V147.962H143.687V158ZM141.293 145.355C141.293 145.009 141.402 144.721 141.618 144.492C141.841 144.263 142.156 144.149 142.564 144.149C142.973 144.149 143.288 144.263 143.511 144.492C143.733 144.721 143.845 145.009 143.845 145.355C143.845 145.695 143.733 145.98 143.511 146.208C143.288 146.431 142.973 146.542 142.564 146.542C142.156 146.542 141.841 146.431 141.618 146.208C141.402 145.98 141.293 145.695 141.293 145.355ZM148.242 147.962L148.307 149.122C149.049 148.225 150.023 147.776 151.229 147.776C153.32 147.776 154.384 148.973 154.421 151.367V158H152.167V151.497C152.167 150.86 152.027 150.389 151.749 150.086C151.477 149.777 151.028 149.623 150.404 149.623C149.495 149.623 148.817 150.034 148.372 150.856V158H146.118V147.962H148.242ZM162.808 157.017C162.146 157.796 161.206 158.186 159.987 158.186C158.899 158.186 158.073 157.867 157.51 157.23C156.954 156.593 156.675 155.671 156.675 154.465V147.962H158.93V154.438C158.93 155.712 159.458 156.349 160.516 156.349C161.611 156.349 162.35 155.956 162.733 155.17V147.962H164.988V158H162.863L162.808 157.017ZM171.705 158.186C170.276 158.186 169.116 157.737 168.226 156.84C167.341 155.937 166.899 154.737 166.899 153.241V152.962C166.899 151.96 167.091 151.067 167.474 150.281C167.864 149.49 168.408 148.874 169.107 148.435C169.806 147.996 170.585 147.776 171.445 147.776C172.812 147.776 173.866 148.212 174.608 149.084C175.357 149.957 175.731 151.19 175.731 152.786V153.695H169.172C169.24 154.524 169.515 155.18 169.998 155.662C170.486 156.145 171.098 156.386 171.834 156.386C172.867 156.386 173.708 155.968 174.358 155.133L175.573 156.293C175.171 156.893 174.633 157.36 173.959 157.694C173.291 158.022 172.54 158.186 171.705 158.186ZM171.436 149.585C170.817 149.585 170.316 149.802 169.933 150.235C169.555 150.668 169.314 151.271 169.209 152.044H173.504V151.877C173.455 151.122 173.254 150.553 172.901 150.17C172.549 149.78 172.06 149.585 171.436 149.585Z" fill="white"/>
<rect x="53.75" y="53.75" width="671.5" height="236.5" rx="10.25" stroke="white" stroke-opacity="0.12" stroke-width="0.5"/>
<g filter="url(#filter1_di)">
<path d="M54 70C54 64.3995 54 61.5992 55.0899 59.4601C56.0487 57.5785 57.5785 56.0487 59.4601 55.0899C61.5992 54 64.3995 54 70 54H709C714.601 54 717.401 54 719.54 55.0899C721.422 56.0487 722.951 57.5785 723.91 59.4601C725 61.5992 725 64.3995 725 70V82H54V70Z" fill="#1E1E1E"/>
<path fill-rule="evenodd" clip-rule="evenodd" d="M68 74C71.3137 74 74 71.3137 74 68C74 64.6863 71.3137 62 68 62C64.6863 62 62 64.6863 62 68C62 71.3137 64.6863 74 68 74Z" fill="#FF5E57"/>
<path fill-rule="evenodd" clip-rule="evenodd" d="M88 74C91.3137 74 94 71.3137 94 68C94 64.6863 91.3137 62 88 62C84.6863 62 82 64.6863 82 68C82 71.3137 84.6863 74 88 74Z" fill="#FFBB2E"/>
<path fill-rule="evenodd" clip-rule="evenodd" d="M108 74C111.314 74 114 71.3137 114 68C114 64.6863 111.314 62 108 62C104.686 62 102 64.6863 102 68C102 71.3137 104.686 74 108 74Z" fill="#38C149"/>
<path d="M323.305 73H325.114L326.828 66.8301H326.929L328.662 73H330.458L332.89 63.8403H330.909L329.494 70.3848H329.392L327.691 63.8403H326.072L324.403 70.3848H324.301L322.873 63.8403H320.88L323.305 73ZM335.269 64.9385C335.84 64.9385 336.31 64.4814 336.31 63.9102C336.31 63.3325 335.84 62.8755 335.269 62.8755C334.697 62.8755 334.221 63.3325 334.221 63.9102C334.221 64.4814 334.697 64.9385 335.269 64.9385ZM334.336 73H336.189V66.0112H334.336V73ZM338.003 73H339.857V68.9565C339.857 68.0107 340.377 67.395 341.234 67.395C342.11 67.395 342.517 67.9155 342.517 68.8994V73H344.37V68.4805C344.37 66.811 343.532 65.8589 341.977 65.8589C340.98 65.8589 340.289 66.335 339.971 67.0903H339.857V66.0112H338.003V73ZM348.609 73.1079C349.593 73.1079 350.336 72.6699 350.697 71.9146H350.812V73H352.665V63.3389H350.812V67.1284H350.697C350.348 66.3667 349.568 65.897 348.609 65.897C346.838 65.897 345.772 67.249 345.772 69.4961V69.5088C345.772 71.7432 346.864 73.1079 348.609 73.1079ZM349.238 71.5718C348.26 71.5718 347.657 70.7974 347.657 69.5088V69.4961C347.657 68.2202 348.26 67.4331 349.238 67.4331C350.215 67.4331 350.831 68.2202 350.831 69.5024V69.5151C350.831 70.7974 350.221 71.5718 349.238 71.5718ZM357.634 73.146C359.786 73.146 361.081 71.7876 361.081 69.5088V69.4961C361.081 67.2363 359.767 65.8589 357.634 65.8589C355.501 65.8589 354.187 67.2427 354.187 69.4961V69.5088C354.187 71.7812 355.482 73.146 357.634 73.146ZM357.634 71.6924C356.644 71.6924 356.085 70.8862 356.085 69.5088V69.4961C356.085 68.1313 356.65 67.3125 357.634 67.3125C358.612 67.3125 359.183 68.1313 359.183 69.4961V69.5088C359.183 70.8862 358.618 71.6924 357.634 71.6924ZM363.574 73H365.517L366.755 68.125H366.869L368.119 73H370.087L371.947 66.0112H370.113L369.072 71.0703H368.957L367.726 66.0112H365.961L364.736 71.0703H364.622L363.581 66.0112H361.708L363.574 73ZM378.921 73H380.838V65.4209H383.586V63.8403H376.172V65.4209H378.921V73ZM385.864 64.9385C386.435 64.9385 386.905 64.4814 386.905 63.9102C386.905 63.3325 386.435 62.8755 385.864 62.8755C385.292 62.8755 384.816 63.3325 384.816 63.9102C384.816 64.4814 385.292 64.9385 385.864 64.9385ZM384.931 73H386.784V66.0112H384.931V73ZM391.499 73.0254C391.855 73.0254 392.198 72.9873 392.426 72.9429V71.5654C392.248 71.5845 392.121 71.5972 391.88 71.5972C391.252 71.5972 390.985 71.3179 390.985 70.6895V67.4077H392.426V66.0112H390.985V64.3418H389.113V66.0112H388.033V67.4077H389.113V71.1147C389.113 72.4731 389.798 73.0254 391.499 73.0254ZM393.98 73H395.833V63.3389H393.98V73ZM400.771 73.146C402.815 73.146 403.716 71.9653 403.932 71.0894L403.945 71.0259H402.218L402.199 71.064C402.072 71.3306 401.621 71.7622 400.809 71.7622C399.825 71.7622 399.209 71.0957 399.19 69.9468H404.002V69.3691C404.002 67.2554 402.732 65.8589 400.695 65.8589C398.657 65.8589 397.356 67.2871 397.356 69.5088V69.5151C397.356 71.7559 398.644 73.146 400.771 73.146ZM400.726 67.249C401.532 67.249 402.11 67.7695 402.224 68.7852H399.209C399.323 67.7949 399.92 67.249 400.726 67.249ZM411.14 75.3169H412.842C411.889 74.1045 411.166 71.6035 411.166 69.3247C411.166 67.0459 411.889 64.5386 412.842 63.3389H411.14C409.858 64.8877 409.255 66.9126 409.255 69.3247C409.255 71.7178 409.852 73.749 411.14 75.3169ZM413.818 73H415.83L416.509 70.7783H419.74L420.419 73H422.438L419.251 63.8403H416.998L413.818 73ZM418.071 65.6685H418.185L419.302 69.3438H416.947L418.071 65.6685ZM426.455 73.146C428.277 73.146 429.368 72.1685 429.559 70.645L429.565 70.6069H427.851L427.839 70.6323C427.674 71.3306 427.223 71.6924 426.461 71.6924C425.471 71.6924 424.919 70.9116 424.919 69.4961V69.4834C424.919 68.0869 425.465 67.3125 426.461 67.3125C427.255 67.3125 427.718 67.7568 427.839 68.436L427.845 68.4487H429.572V68.4297C429.407 66.8682 428.308 65.8589 426.455 65.8589C424.265 65.8589 423.033 67.1855 423.033 69.4834V69.4961C423.033 71.8193 424.271 73.146 426.455 73.146ZM433.931 73.0254C434.287 73.0254 434.629 72.9873 434.858 72.9429V71.5654C434.68 71.5845 434.553 71.5972 434.312 71.5972C433.684 71.5972 433.417 71.3179 433.417 70.6895V67.4077H434.858V66.0112H433.417V64.3418H431.544V66.0112H430.465V67.4077H431.544V71.1147C431.544 72.4731 432.23 73.0254 433.931 73.0254ZM437.294 64.9385C437.865 64.9385 438.335 64.4814 438.335 63.9102C438.335 63.3325 437.865 62.8755 437.294 62.8755C436.723 62.8755 436.247 63.3325 436.247 63.9102C436.247 64.4814 436.723 64.9385 437.294 64.9385ZM436.361 73H438.215V66.0112H436.361V73ZM441.857 73H443.939L446.357 66.0112H444.409L442.974 71.2671H442.86L441.413 66.0112H439.426L441.857 73ZM450.336 73.146C452.38 73.146 453.282 71.9653 453.497 71.0894L453.51 71.0259H451.783L451.764 71.064C451.637 71.3306 451.187 71.7622 450.374 71.7622C449.39 71.7622 448.775 71.0957 448.756 69.9468H453.567V69.3691C453.567 67.2554 452.298 65.8589 450.26 65.8589C448.222 65.8589 446.921 67.2871 446.921 69.5088V69.5151C446.921 71.7559 448.21 73.146 450.336 73.146ZM450.292 67.249C451.098 67.249 451.676 67.7695 451.79 68.7852H448.775C448.889 67.7949 449.486 67.249 450.292 67.249ZM456.384 75.3169C457.667 73.749 458.263 71.7178 458.263 69.3247C458.263 66.9126 457.66 64.8877 456.384 63.3389H454.677C455.629 64.5386 456.353 67.0459 456.353 69.3247C456.353 71.5972 455.629 74.1045 454.677 75.3169H456.384Z" fill="#EBEBF5" fill-opacity="0.6"/>
</g>
</g>
</g>
<defs>
<filter id="filter0_dd" x="23" y="33" width="733" height="313" filterUnits="userSpaceOnUse" color-interpolation-filters="sRGB">
<feFlood flood-opacity="0" result="BackgroundImageFix"/>
<feColorMatrix in="SourceAlpha" type="matrix" values="0 0 0 0 0 0 0 0 0 0 0 0 0 0 0 0 0 0 127 0"/>
<feOffset dy="25"/>
<feGaussianBlur stdDeviation="15"/>
<feColorMatrix type="matrix" values="0 0 0 0 0 0 0 0 0 0 0 0 0 0 0 0 0 0 0.35 0"/>
<feBlend mode="normal" in2="BackgroundImageFix" result="effect1_dropShadow"/>
<feColorMatrix in="SourceAlpha" type="matrix" values="0 0 0 0 0 0 0 0 0 0 0 0 0 0 0 0 0 0 127 0"/>
<feOffset/>
<feGaussianBlur stdDeviation="10"/>
<feColorMatrix type="matrix" values="0 0 0 0 0 0 0 0 0 0 0 0 0 0 0 0 0 0 0.15 0"/>
<feBlend mode="normal" in2="effect1_dropShadow" result="effect2_dropShadow"/>
<feBlend mode="normal" in="SourceGraphic" in2="effect2_dropShadow" result="shape"/>
</filter>
<filter id="filter1_di" x="54" y="54" width="671" height="28.5" filterUnits="userSpaceOnUse" color-interpolation-filters="sRGB">
<feFlood flood-opacity="0" result="BackgroundImageFix"/>
<feColorMatrix in="SourceAlpha" type="matrix" values="0 0 0 0 0 0 0 0 0 0 0 0 0 0 0 0 0 0 127 0"/>
<feOffset dy="0.5"/>
<feColorMatrix type="matrix" values="0 0 0 0 0 0 0 0 0 0 0 0 0 0 0 0 0 0 0.15 0"/>
<feBlend mode="normal" in2="BackgroundImageFix" result="effect1_dropShadow"/>
<feBlend mode="normal" in="SourceGraphic" in2="effect1_dropShadow" result="shape"/>
<feColorMatrix in="SourceAlpha" type="matrix" values="0 0 0 0 0 0 0 0 0 0 0 0 0 0 0 0 0 0 127 0" result="hardAlpha"/>
<feOffset dy="-0.5"/>
<feComposite in2="hardAlpha" operator="arithmetic" k2="-1" k3="1"/>
<feColorMatrix type="matrix" values="0 0 0 0 0 0 0 0 0 0 0 0 0 0 0 0 0 0 0.05 0"/>
<feBlend mode="normal" in2="shape" result="effect2_innerShadow"/>
</filter>
<clipPath id="clip0">
<rect width="779" height="344" fill="white"/>
</clipPath>
</defs>
</svg>
