<svg width="733" height="313" viewBox="0 0 733 313" fill="none" xmlns="http://www.w3.org/2000/svg">
<g filter="url(#filter0_dd)">
<rect x="31" y="21" width="671" height="236" fill="#282828"/>
<path d="M78.373 103V89.4922H82.3623C83.556 89.4922 84.6136 89.7581 85.5352 90.29C86.4629 90.8219 87.1803 91.5765 87.6875 92.5537C88.1947 93.5309 88.4482 94.6504 88.4482 95.9121V96.5894C88.4482 97.8696 88.1916 98.9953 87.6782 99.9663C87.1711 100.937 86.4443 101.686 85.498 102.211C84.5579 102.737 83.4787 103 82.2603 103H78.373ZM80.7202 91.3848V101.126H82.251C83.4818 101.126 84.425 100.743 85.0806 99.9756C85.7424 99.2025 86.0794 98.0954 86.0918 96.6543V95.9028C86.0918 94.437 85.7733 93.3175 85.1362 92.5444C84.4992 91.7713 83.5745 91.3848 82.3623 91.3848H80.7202ZM90.146 97.8882C90.146 96.9048 90.3408 96.0203 90.7305 95.2349C91.1201 94.4432 91.6675 93.8371 92.3726 93.4165C93.0776 92.9897 93.8879 92.7764 94.8032 92.7764C96.1577 92.7764 97.2555 93.2124 98.0967 94.0845C98.944 94.9565 99.4017 96.1131 99.4697 97.5542L99.479 98.083C99.479 99.0726 99.2873 99.957 98.9038 100.736C98.5265 101.516 97.9823 102.119 97.271 102.545C96.5659 102.972 95.7495 103.186 94.8218 103.186C93.4054 103.186 92.2705 102.715 91.417 101.775C90.5697 100.829 90.146 99.5705 90.146 97.9995V97.8882ZM92.4004 98.083C92.4004 99.1159 92.6138 99.9261 93.0405 100.514C93.4673 101.095 94.061 101.386 94.8218 101.386C95.5825 101.386 96.1732 101.089 96.5938 100.495C97.0205 99.9014 97.2339 99.0324 97.2339 97.8882C97.2339 96.8739 97.0143 96.0698 96.5752 95.4761C96.1423 94.8823 95.5516 94.5854 94.8032 94.5854C94.0672 94.5854 93.4827 94.8792 93.0498 95.4668C92.6169 96.0482 92.4004 96.9202 92.4004 98.083ZM110.742 95.8936L113.85 89.4922H116.447L111.92 98.0273V103H109.563V98.0273L105.027 89.4922H107.634L110.742 95.8936ZM116.661 97.8882C116.661 96.9048 116.855 96.0203 117.245 95.2349C117.635 94.4432 118.182 93.8371 118.887 93.4165C119.592 92.9897 120.403 92.7764 121.318 92.7764C122.672 92.7764 123.77 93.2124 124.611 94.0845C125.459 94.9565 125.916 96.1131 125.984 97.5542L125.994 98.083C125.994 99.0726 125.802 99.957 125.418 100.736C125.041 101.516 124.497 102.119 123.786 102.545C123.081 102.972 122.264 103.186 121.336 103.186C119.92 103.186 118.785 102.715 117.932 101.775C117.084 100.829 116.661 99.5705 116.661 97.9995V97.8882ZM118.915 98.083C118.915 99.1159 119.128 99.9261 119.555 100.514C119.982 101.095 120.576 101.386 121.336 101.386C122.097 101.386 122.688 101.089 123.108 100.495C123.535 99.9014 123.749 99.0324 123.749 97.8882C123.749 96.8739 123.529 96.0698 123.09 95.4761C122.657 94.8823 122.066 94.5854 121.318 94.5854C120.582 94.5854 119.997 94.8792 119.564 95.4668C119.132 96.0482 118.915 96.9202 118.915 98.083ZM133.981 102.017C133.32 102.796 132.38 103.186 131.161 103.186C130.073 103.186 129.247 102.867 128.684 102.23C128.127 101.593 127.849 100.671 127.849 99.4653V92.9619H130.104V99.4375C130.104 100.712 130.632 101.349 131.69 101.349C132.785 101.349 133.524 100.956 133.907 100.17V92.9619H136.162V103H134.037L133.981 102.017ZM152.007 99.8921L153.603 92.9619H155.802L153.065 103H151.209L149.057 96.1069L146.942 103H145.086L142.34 92.9619H144.539L146.163 99.8179L148.222 92.9619H149.92L152.007 99.8921ZM163.307 103C163.208 102.808 163.122 102.496 163.047 102.063C162.33 102.811 161.452 103.186 160.413 103.186C159.404 103.186 158.582 102.898 157.945 102.323C157.308 101.748 156.989 101.036 156.989 100.189C156.989 99.119 157.385 98.2995 158.177 97.7305C158.975 97.1553 160.113 96.8677 161.591 96.8677H162.973V96.209C162.973 95.6895 162.828 95.2751 162.537 94.9658C162.246 94.6504 161.804 94.4927 161.21 94.4927C160.697 94.4927 160.277 94.6226 159.949 94.8823C159.621 95.1359 159.457 95.4606 159.457 95.8564H157.203C157.203 95.306 157.385 94.7926 157.75 94.3164C158.115 93.834 158.61 93.4567 159.234 93.1846C159.865 92.9124 160.567 92.7764 161.34 92.7764C162.515 92.7764 163.452 93.0732 164.151 93.667C164.85 94.2546 165.209 95.0833 165.228 96.1533V100.681C165.228 101.584 165.354 102.304 165.608 102.842V103H163.307ZM160.83 101.376C161.275 101.376 161.693 101.268 162.083 101.052C162.478 100.835 162.775 100.545 162.973 100.18V98.2871H161.758C160.923 98.2871 160.295 98.4325 159.875 98.7231C159.454 99.0138 159.244 99.4251 159.244 99.957C159.244 100.39 159.386 100.736 159.67 100.996C159.961 101.25 160.348 101.376 160.83 101.376ZM169.681 92.9619L169.746 94.1216C170.488 93.2248 171.462 92.7764 172.668 92.7764C174.758 92.7764 175.822 93.9731 175.859 96.3667V103H173.605V96.4966C173.605 95.8595 173.466 95.3895 173.188 95.0864C172.915 94.7772 172.467 94.6226 171.842 94.6226C170.933 94.6226 170.256 95.0339 169.811 95.8564V103H167.556V92.9619H169.681ZM185.721 90.522V92.9619H187.493V94.6318H185.721V100.235C185.721 100.619 185.795 100.897 185.944 101.07C186.098 101.237 186.371 101.321 186.76 101.321C187.02 101.321 187.283 101.29 187.549 101.228V102.972C187.035 103.114 186.541 103.186 186.064 103.186C184.333 103.186 183.467 102.23 183.467 100.319V94.6318H181.815V92.9619H183.467V90.522H185.721ZM188.523 97.8882C188.523 96.9048 188.718 96.0203 189.107 95.2349C189.497 94.4432 190.044 93.8371 190.75 93.4165C191.455 92.9897 192.265 92.7764 193.18 92.7764C194.535 92.7764 195.632 93.2124 196.474 94.0845C197.321 94.9565 197.779 96.1131 197.847 97.5542L197.856 98.083C197.856 99.0726 197.664 99.957 197.281 100.736C196.903 101.516 196.359 102.119 195.648 102.545C194.943 102.972 194.126 103.186 193.199 103.186C191.782 103.186 190.647 102.715 189.794 101.775C188.947 100.829 188.523 99.5705 188.523 97.9995V97.8882ZM190.777 98.083C190.777 99.1159 190.991 99.9261 191.417 100.514C191.844 101.095 192.438 101.386 193.199 101.386C193.959 101.386 194.55 101.089 194.971 100.495C195.397 99.9014 195.611 99.0324 195.611 97.8882C195.611 96.8739 195.391 96.0698 194.952 95.4761C194.519 94.8823 193.929 94.5854 193.18 94.5854C192.444 94.5854 191.86 94.8792 191.427 95.4668C190.994 96.0482 190.777 96.9202 190.777 98.083ZM208.618 101.386C209.181 101.386 209.647 101.222 210.019 100.894C210.39 100.566 210.588 100.161 210.612 99.6787H212.737C212.712 100.303 212.517 100.888 212.152 101.432C211.787 101.97 211.293 102.397 210.668 102.712C210.043 103.028 209.369 103.186 208.646 103.186C207.242 103.186 206.128 102.731 205.306 101.822C204.483 100.913 204.072 99.6571 204.072 98.0552V97.8232C204.072 96.2956 204.48 95.0741 205.296 94.1587C206.113 93.2371 207.226 92.7764 208.636 92.7764C209.83 92.7764 210.801 93.1258 211.549 93.8247C212.304 94.5174 212.7 95.4297 212.737 96.5615H210.612C210.588 95.9863 210.39 95.5132 210.019 95.1421C209.654 94.771 209.187 94.5854 208.618 94.5854C207.888 94.5854 207.325 94.8514 206.929 95.3833C206.533 95.909 206.332 96.71 206.326 97.7861V98.1479C206.326 99.2365 206.521 100.05 206.911 100.588C207.306 101.12 207.875 101.386 208.618 101.386ZM219.695 95.0215C219.398 94.972 219.092 94.9473 218.776 94.9473C217.743 94.9473 217.048 95.3431 216.689 96.1348V103H214.435V92.9619H216.587L216.643 94.0845C217.187 93.2124 217.941 92.7764 218.906 92.7764C219.228 92.7764 219.494 92.8197 219.704 92.9062L219.695 95.0215ZM226.838 103C226.739 102.808 226.653 102.496 226.579 102.063C225.861 102.811 224.983 103.186 223.944 103.186C222.936 103.186 222.113 102.898 221.476 102.323C220.839 101.748 220.521 101.036 220.521 100.189C220.521 99.119 220.916 98.2995 221.708 97.7305C222.506 97.1553 223.644 96.8677 225.122 96.8677H226.504V96.209C226.504 95.6895 226.359 95.2751 226.068 94.9658C225.778 94.6504 225.335 94.4927 224.742 94.4927C224.228 94.4927 223.808 94.6226 223.48 94.8823C223.152 95.1359 222.988 95.4606 222.988 95.8564H220.734C220.734 95.306 220.916 94.7926 221.281 94.3164C221.646 93.834 222.141 93.4567 222.766 93.1846C223.396 92.9124 224.098 92.7764 224.872 92.7764C226.047 92.7764 226.984 93.0732 227.683 93.667C228.382 94.2546 228.74 95.0833 228.759 96.1533V100.681C228.759 101.584 228.886 102.304 229.139 102.842V103H226.838ZM224.361 101.376C224.807 101.376 225.224 101.268 225.614 101.052C226.01 100.835 226.306 100.545 226.504 100.18V98.2871H225.289C224.454 98.2871 223.826 98.4325 223.406 98.7231C222.985 99.0138 222.775 99.4251 222.775 99.957C222.775 100.39 222.917 100.736 223.202 100.996C223.492 101.25 223.879 101.376 224.361 101.376ZM236.747 100.272C236.747 99.8704 236.58 99.5643 236.246 99.354C235.918 99.1437 235.37 98.9582 234.604 98.7974C233.837 98.6366 233.196 98.4325 232.683 98.1851C231.557 97.6408 230.995 96.8522 230.995 95.8193C230.995 94.9535 231.36 94.2298 232.089 93.6484C232.819 93.0671 233.747 92.7764 234.873 92.7764C236.072 92.7764 237.04 93.0732 237.776 93.667C238.519 94.2607 238.89 95.0308 238.89 95.9771H236.635C236.635 95.5441 236.474 95.1854 236.153 94.9009C235.831 94.6102 235.404 94.4648 234.873 94.4648C234.378 94.4648 233.973 94.5793 233.657 94.8081C233.348 95.0369 233.193 95.3431 233.193 95.7266C233.193 96.0729 233.339 96.342 233.629 96.5337C233.92 96.7254 234.508 96.9202 235.392 97.1182C236.277 97.3099 236.969 97.5418 237.47 97.814C237.977 98.0799 238.352 98.4015 238.593 98.7788C238.84 99.1561 238.964 99.6138 238.964 100.152C238.964 101.055 238.59 101.788 237.841 102.351C237.093 102.907 236.113 103.186 234.9 103.186C234.078 103.186 233.345 103.037 232.702 102.74C232.058 102.443 231.557 102.035 231.199 101.516C230.84 100.996 230.661 100.436 230.661 99.8364H232.85C232.881 100.368 233.082 100.78 233.453 101.07C233.824 101.355 234.316 101.497 234.928 101.497C235.522 101.497 235.973 101.386 236.283 101.163C236.592 100.934 236.747 100.637 236.747 100.272ZM243.157 94.0566C243.893 93.2031 244.824 92.7764 245.95 92.7764C248.09 92.7764 249.175 93.9979 249.206 96.4409V103H246.952V96.5244C246.952 95.8317 246.8 95.3431 246.497 95.0586C246.2 94.7679 245.761 94.6226 245.18 94.6226C244.277 94.6226 243.603 95.0246 243.157 95.8286V103H240.903V88.75H243.157V94.0566ZM259.736 99.7715L261.777 92.9619H264.18L260.19 104.521C259.578 106.21 258.539 107.054 257.073 107.054C256.745 107.054 256.384 106.999 255.988 106.887V105.143L256.415 105.171C256.984 105.171 257.41 105.066 257.695 104.855C257.986 104.651 258.214 104.305 258.381 103.816L258.706 102.954L255.181 92.9619H257.611L259.736 99.7715ZM264.913 97.8882C264.913 96.9048 265.107 96.0203 265.497 95.2349C265.887 94.4432 266.434 93.8371 267.139 93.4165C267.844 92.9897 268.654 92.7764 269.57 92.7764C270.924 92.7764 272.022 93.2124 272.863 94.0845C273.711 94.9565 274.168 96.1131 274.236 97.5542L274.246 98.083C274.246 99.0726 274.054 99.957 273.67 100.736C273.293 101.516 272.749 102.119 272.038 102.545C271.333 102.972 270.516 103.186 269.588 103.186C268.172 103.186 267.037 102.715 266.184 101.775C265.336 100.829 264.913 99.5705 264.913 97.9995V97.8882ZM267.167 98.083C267.167 99.1159 267.38 99.9261 267.807 100.514C268.234 101.095 268.828 101.386 269.588 101.386C270.349 101.386 270.94 101.089 271.36 100.495C271.787 99.9014 272 99.0324 272 97.8882C272 96.8739 271.781 96.0698 271.342 95.4761C270.909 94.8823 270.318 94.5854 269.57 94.5854C268.834 94.5854 268.249 94.8792 267.816 95.4668C267.383 96.0482 267.167 96.9202 267.167 98.083ZM282.233 102.017C281.572 102.796 280.632 103.186 279.413 103.186C278.325 103.186 277.499 102.867 276.936 102.23C276.379 101.593 276.101 100.671 276.101 99.4653V92.9619H278.355V99.4375C278.355 100.712 278.884 101.349 279.942 101.349C281.037 101.349 281.776 100.956 282.159 100.17V92.9619H284.414V103H282.289L282.233 102.017ZM291.965 95.0215C291.668 94.972 291.362 94.9473 291.047 94.9473C290.014 94.9473 289.318 95.3431 288.959 96.1348V103H286.705V92.9619H288.857L288.913 94.0845C289.457 93.2124 290.212 92.7764 291.177 92.7764C291.498 92.7764 291.764 92.8197 291.975 92.9062L291.965 95.0215ZM308.934 99.6602L311.012 89.4922H313.34L310.223 103H307.978L305.408 93.1382L302.783 103H300.528L297.411 89.4922H299.74L301.836 99.6416L304.416 89.4922H306.382L308.934 99.6602ZM317.237 103H314.982V92.9619H317.237V103ZM314.843 90.355C314.843 90.0086 314.951 89.721 315.168 89.4922C315.391 89.2633 315.706 89.1489 316.114 89.1489C316.522 89.1489 316.838 89.2633 317.061 89.4922C317.283 89.721 317.395 90.0086 317.395 90.355C317.395 90.6951 317.283 90.9797 317.061 91.2085C316.838 91.4312 316.522 91.5425 316.114 91.5425C315.706 91.5425 315.391 91.4312 315.168 91.2085C314.951 90.9797 314.843 90.6951 314.843 90.355ZM321.792 92.9619L321.857 94.1216C322.599 93.2248 323.573 92.7764 324.779 92.7764C326.87 92.7764 327.934 93.9731 327.971 96.3667V103H325.716V96.4966C325.716 95.8595 325.577 95.3895 325.299 95.0864C325.027 94.7772 324.578 94.6226 323.954 94.6226C323.044 94.6226 322.367 95.0339 321.922 95.8564V103H319.667V92.9619H321.792ZM329.854 97.9067C329.854 96.3605 330.213 95.1204 330.93 94.1865C331.648 93.2464 332.609 92.7764 333.815 92.7764C334.879 92.7764 335.739 93.1475 336.395 93.8896V88.75H338.649V103H336.608L336.497 101.961C335.822 102.777 334.923 103.186 333.797 103.186C332.622 103.186 331.669 102.712 330.939 101.766C330.216 100.82 329.854 99.5334 329.854 97.9067ZM332.108 98.1016C332.108 99.1221 332.303 99.9199 332.693 100.495C333.089 101.064 333.648 101.349 334.372 101.349C335.294 101.349 335.968 100.937 336.395 100.115V95.8286C335.98 95.0246 335.312 94.6226 334.391 94.6226C333.661 94.6226 333.098 94.9132 332.702 95.4946C332.306 96.0698 332.108 96.9388 332.108 98.1016ZM340.579 97.8882C340.579 96.9048 340.773 96.0203 341.163 95.2349C341.553 94.4432 342.1 93.8371 342.805 93.4165C343.51 92.9897 344.32 92.7764 345.236 92.7764C346.59 92.7764 347.688 93.2124 348.529 94.0845C349.377 94.9565 349.834 96.1131 349.902 97.5542L349.912 98.083C349.912 99.0726 349.72 99.957 349.336 100.736C348.959 101.516 348.415 102.119 347.704 102.545C346.999 102.972 346.182 103.186 345.254 103.186C343.838 103.186 342.703 102.715 341.85 101.775C341.002 100.829 340.579 99.5705 340.579 97.9995V97.8882ZM342.833 98.083C342.833 99.1159 343.046 99.9261 343.473 100.514C343.9 101.095 344.494 101.386 345.254 101.386C346.015 101.386 346.606 101.089 347.026 100.495C347.453 99.9014 347.667 99.0324 347.667 97.8882C347.667 96.8739 347.447 96.0698 347.008 95.4761C346.575 94.8823 345.984 94.5854 345.236 94.5854C344.5 94.5854 343.915 94.8792 343.482 95.4668C343.049 96.0482 342.833 96.9202 342.833 98.083ZM360.636 99.8921L362.232 92.9619H364.431L361.694 103H359.838L357.686 96.1069L355.571 103H353.715L350.969 92.9619H353.168L354.792 99.8179L356.851 92.9619H358.549L360.636 99.8921ZM371.565 100.272C371.565 99.8704 371.398 99.5643 371.064 99.354C370.736 99.1437 370.189 98.9582 369.422 98.7974C368.655 98.6366 368.015 98.4325 367.501 98.1851C366.376 97.6408 365.813 96.8522 365.813 95.8193C365.813 94.9535 366.178 94.2298 366.908 93.6484C367.638 93.0671 368.565 92.7764 369.691 92.7764C370.891 92.7764 371.859 93.0732 372.595 93.667C373.337 94.2607 373.708 95.0308 373.708 95.9771H371.454C371.454 95.5441 371.293 95.1854 370.971 94.9009C370.65 94.6102 370.223 94.4648 369.691 94.4648C369.196 94.4648 368.791 94.5793 368.476 94.8081C368.166 95.0369 368.012 95.3431 368.012 95.7266C368.012 96.0729 368.157 96.342 368.448 96.5337C368.738 96.7254 369.326 96.9202 370.21 97.1182C371.095 97.3099 371.788 97.5418 372.289 97.814C372.796 98.0799 373.17 98.4015 373.411 98.7788C373.659 99.1561 373.782 99.6138 373.782 100.152C373.782 101.055 373.408 101.788 372.66 102.351C371.911 102.907 370.931 103.186 369.719 103.186C368.896 103.186 368.163 103.037 367.52 102.74C366.877 102.443 366.376 102.035 366.017 101.516C365.658 100.996 365.479 100.436 365.479 99.8364H367.668C367.699 100.368 367.9 100.78 368.271 101.07C368.643 101.355 369.134 101.497 369.747 101.497C370.34 101.497 370.792 101.386 371.101 101.163C371.41 100.934 371.565 100.637 371.565 100.272ZM383.05 97.981V103H380.703V89.4922H385.871C387.38 89.4922 388.576 89.8849 389.461 90.6704C390.352 91.4559 390.797 92.495 390.797 93.7876C390.797 95.1112 390.361 96.141 389.489 96.877C388.623 97.613 387.408 97.981 385.843 97.981H383.05ZM383.05 96.0977H385.871C386.706 96.0977 387.343 95.9028 387.782 95.5132C388.221 95.1174 388.44 94.5483 388.44 93.8062C388.44 93.0763 388.218 92.495 387.772 92.062C387.327 91.6229 386.715 91.3971 385.936 91.3848H383.05V96.0977ZM403.164 98.6025C403.028 100.044 402.496 101.169 401.568 101.979C400.64 102.784 399.406 103.186 397.866 103.186C396.79 103.186 395.841 102.932 395.018 102.425C394.202 101.911 393.571 101.185 393.125 100.245C392.68 99.3045 392.448 98.2129 392.43 96.9697V95.708C392.43 94.4339 392.655 93.3114 393.107 92.3403C393.558 91.3693 394.205 90.6209 395.046 90.0952C395.893 89.5695 396.87 89.3066 397.978 89.3066C399.468 89.3066 400.668 89.7118 401.577 90.522C402.486 91.3322 403.015 92.4764 403.164 93.9546H400.826C400.714 92.9836 400.43 92.2847 399.972 91.8579C399.521 91.425 398.856 91.2085 397.978 91.2085C396.957 91.2085 396.172 91.5827 395.621 92.3311C395.077 93.0732 394.799 94.1649 394.786 95.606V96.8027C394.786 98.2624 395.046 99.3757 395.565 100.143C396.091 100.91 396.858 101.293 397.866 101.293C398.788 101.293 399.48 101.086 399.944 100.671C400.408 100.257 400.702 99.5674 400.826 98.6025H403.164ZM407.144 99.0293C407.144 98.2067 407.246 97.5511 407.45 97.0625C407.654 96.5739 408.056 96.0389 408.656 95.4575C409.262 94.87 409.645 94.4525 409.806 94.2051C410.054 93.8278 410.177 93.4196 410.177 92.9805C410.177 92.3991 410.032 91.9569 409.741 91.6538C409.457 91.3446 409.036 91.1899 408.479 91.1899C407.948 91.1899 407.518 91.3415 407.19 91.6445C406.868 91.9414 406.708 92.3465 406.708 92.8599H404.453C404.465 91.7651 404.837 90.8993 405.566 90.2622C406.302 89.6252 407.273 89.3066 408.479 89.3066C409.723 89.3066 410.691 89.6221 411.383 90.2529C412.082 90.8838 412.432 91.7651 412.432 92.897C412.432 93.9051 411.962 94.8978 411.021 95.875L409.88 96.9976C409.472 97.4614 409.262 98.1387 409.25 99.0293H407.144ZM406.986 101.915C406.986 101.55 407.1 101.256 407.329 101.033C407.558 100.804 407.867 100.69 408.257 100.69C408.653 100.69 408.965 100.807 409.194 101.042C409.423 101.271 409.537 101.562 409.537 101.915C409.537 102.255 409.426 102.539 409.203 102.768C408.98 102.997 408.665 103.111 408.257 103.111C407.849 103.111 407.533 102.997 407.311 102.768C407.094 102.539 406.986 102.255 406.986 101.915ZM428.444 91.3848H424.232V103H421.904V91.3848H417.729V89.4922H428.444V91.3848ZM432.229 94.0566C432.965 93.2031 433.896 92.7764 435.022 92.7764C437.162 92.7764 438.247 93.9979 438.278 96.4409V103H436.024V96.5244C436.024 95.8317 435.872 95.3431 435.569 95.0586C435.272 94.7679 434.833 94.6226 434.252 94.6226C433.349 94.6226 432.675 95.0246 432.229 95.8286V103H429.975V88.75H432.229V94.0566ZM444.986 103.186C443.557 103.186 442.397 102.737 441.507 101.84C440.622 100.937 440.18 99.7375 440.18 98.2407V97.9624C440.18 96.9604 440.372 96.0667 440.755 95.2812C441.145 94.4896 441.689 93.8742 442.388 93.4351C443.087 92.9959 443.866 92.7764 444.726 92.7764C446.093 92.7764 447.147 93.2124 447.89 94.0845C448.638 94.9565 449.012 96.1904 449.012 97.7861V98.6953H442.453C442.521 99.5241 442.796 100.18 443.279 100.662C443.767 101.145 444.38 101.386 445.116 101.386C446.149 101.386 446.99 100.968 447.639 100.133L448.854 101.293C448.452 101.893 447.914 102.36 447.24 102.694C446.572 103.022 445.821 103.186 444.986 103.186ZM444.717 94.5854C444.098 94.5854 443.597 94.8019 443.214 95.2349C442.837 95.6678 442.595 96.2708 442.49 97.0439H446.786V96.877C446.736 96.1224 446.535 95.5534 446.183 95.1699C445.83 94.7803 445.341 94.5854 444.717 94.5854ZM452.862 92.9619L452.927 94.1216C453.669 93.2248 454.644 92.7764 455.85 92.7764C457.94 92.7764 459.004 93.9731 459.041 96.3667V103H456.787V96.4966C456.787 95.8595 456.647 95.3895 456.369 95.0864C456.097 94.7772 455.649 94.6226 455.024 94.6226C454.115 94.6226 453.438 95.0339 452.992 95.8564V103H450.738V92.9619H452.862ZM476.603 98.6025C476.467 100.044 475.935 101.169 475.007 101.979C474.08 102.784 472.846 103.186 471.306 103.186C470.229 103.186 469.28 102.932 468.458 102.425C467.641 101.911 467.01 101.185 466.565 100.245C466.12 99.3045 465.888 98.2129 465.869 96.9697V95.708C465.869 94.4339 466.095 93.3114 466.546 92.3403C466.998 91.3693 467.644 90.6209 468.485 90.0952C469.333 89.5695 470.31 89.3066 471.417 89.3066C472.908 89.3066 474.107 89.7118 475.017 90.522C475.926 91.3322 476.455 92.4764 476.603 93.9546H474.265C474.154 92.9836 473.869 92.2847 473.412 91.8579C472.96 91.425 472.295 91.2085 471.417 91.2085C470.396 91.2085 469.611 91.5827 469.061 92.3311C468.516 93.0732 468.238 94.1649 468.226 95.606V96.8027C468.226 98.2624 468.485 99.3757 469.005 100.143C469.531 100.91 470.298 101.293 471.306 101.293C472.227 101.293 472.92 101.086 473.384 100.671C473.848 100.257 474.141 99.5674 474.265 98.6025H476.603ZM480.889 103H478.635V88.75H480.889V103ZM485.75 103H483.496V92.9619H485.75V103ZM483.357 90.355C483.357 90.0086 483.465 89.721 483.682 89.4922C483.904 89.2633 484.22 89.1489 484.628 89.1489C485.036 89.1489 485.352 89.2633 485.574 89.4922C485.797 89.721 485.908 90.0086 485.908 90.355C485.908 90.6951 485.797 90.9797 485.574 91.2085C485.352 91.4312 485.036 91.5425 484.628 91.5425C484.22 91.5425 483.904 91.4312 483.682 91.2085C483.465 90.9797 483.357 90.6951 483.357 90.355ZM492.337 101.386C492.9 101.386 493.367 101.222 493.738 100.894C494.109 100.566 494.307 100.161 494.332 99.6787H496.457C496.432 100.303 496.237 100.888 495.872 101.432C495.507 101.97 495.012 102.397 494.388 102.712C493.763 103.028 493.089 103.186 492.365 103.186C490.961 103.186 489.848 102.731 489.025 101.822C488.203 100.913 487.792 99.6571 487.792 98.0552V97.8232C487.792 96.2956 488.2 95.0741 489.016 94.1587C489.833 93.2371 490.946 92.7764 492.356 92.7764C493.55 92.7764 494.521 93.1258 495.269 93.8247C496.024 94.5174 496.419 95.4297 496.457 96.5615H494.332C494.307 95.9863 494.109 95.5132 493.738 95.1421C493.373 94.771 492.906 94.5854 492.337 94.5854C491.608 94.5854 491.045 94.8514 490.649 95.3833C490.253 95.909 490.052 96.71 490.046 97.7861V98.1479C490.046 99.2365 490.241 100.05 490.63 100.588C491.026 101.12 491.595 101.386 492.337 101.386ZM501.42 98.6953L500.418 99.7251V103H498.164V88.75H500.418V96.9697L501.123 96.0884L503.897 92.9619H506.606L502.876 97.146L507.005 103H504.398L501.42 98.6953ZM88.6802 120.603C88.5441 122.044 88.0122 123.169 87.0845 123.979C86.1567 124.784 84.9229 125.186 83.3828 125.186C82.3066 125.186 81.3573 124.932 80.5347 124.425C79.7183 123.911 79.0874 123.185 78.6421 122.245C78.1968 121.305 77.9648 120.213 77.9463 118.97V117.708C77.9463 116.434 78.172 115.311 78.6235 114.34C79.075 113.369 79.7214 112.621 80.5625 112.095C81.4098 111.569 82.387 111.307 83.4941 111.307C84.9847 111.307 86.1846 111.712 87.0938 112.522C88.0029 113.332 88.5317 114.476 88.6802 115.955H86.3423C86.231 114.984 85.9465 114.285 85.4888 113.858C85.0373 113.425 84.3724 113.208 83.4941 113.208C82.4736 113.208 81.6882 113.583 81.1377 114.331C80.5934 115.073 80.3151 116.165 80.3027 117.606V118.803C80.3027 120.262 80.5625 121.376 81.082 122.143C81.6077 122.91 82.3747 123.293 83.3828 123.293C84.3044 123.293 84.9971 123.086 85.4609 122.671C85.9248 122.257 86.2186 121.567 86.3423 120.603H88.6802ZM90.146 119.888C90.146 118.905 90.3408 118.02 90.7305 117.235C91.1201 116.443 91.6675 115.837 92.3726 115.417C93.0776 114.99 93.8879 114.776 94.8032 114.776C96.1577 114.776 97.2555 115.212 98.0967 116.084C98.944 116.957 99.4017 118.113 99.4697 119.554L99.479 120.083C99.479 121.073 99.2873 121.957 98.9038 122.736C98.5265 123.516 97.9823 124.119 97.271 124.545C96.5659 124.972 95.7495 125.186 94.8218 125.186C93.4054 125.186 92.2705 124.715 91.417 123.775C90.5697 122.829 90.146 121.57 90.146 120V119.888ZM92.4004 120.083C92.4004 121.116 92.6138 121.926 93.0405 122.514C93.4673 123.095 94.061 123.386 94.8218 123.386C95.5825 123.386 96.1732 123.089 96.5938 122.495C97.0205 121.901 97.2339 121.032 97.2339 119.888C97.2339 118.874 97.0143 118.07 96.5752 117.476C96.1423 116.882 95.5516 116.585 94.8032 116.585C94.0672 116.585 93.4827 116.879 93.0498 117.467C92.6169 118.048 92.4004 118.92 92.4004 120.083ZM103.478 114.962L103.542 116.122C104.285 115.225 105.259 114.776 106.465 114.776C108.555 114.776 109.619 115.973 109.656 118.367V125H107.402V118.497C107.402 117.86 107.263 117.389 106.984 117.086C106.712 116.777 106.264 116.623 105.639 116.623C104.73 116.623 104.053 117.034 103.607 117.856V125H101.353V114.962H103.478ZM114.787 112.522V114.962H116.559V116.632H114.787V122.235C114.787 122.619 114.861 122.897 115.009 123.07C115.164 123.237 115.436 123.321 115.826 123.321C116.085 123.321 116.348 123.29 116.614 123.228V124.972C116.101 125.114 115.606 125.186 115.13 125.186C113.398 125.186 112.532 124.23 112.532 122.319V116.632H110.881V114.962H112.532V112.522H114.787ZM120.687 125H118.433V114.962H120.687V125ZM118.293 112.355C118.293 112.009 118.402 111.721 118.618 111.492C118.841 111.263 119.156 111.149 119.564 111.149C119.973 111.149 120.288 111.263 120.511 111.492C120.733 111.721 120.845 112.009 120.845 112.355C120.845 112.695 120.733 112.98 120.511 113.208C120.288 113.431 119.973 113.542 119.564 113.542C119.156 113.542 118.841 113.431 118.618 113.208C118.402 112.98 118.293 112.695 118.293 112.355ZM125.242 114.962L125.307 116.122C126.049 115.225 127.023 114.776 128.229 114.776C130.32 114.776 131.384 115.973 131.421 118.367V125H129.167V118.497C129.167 117.86 129.027 117.389 128.749 117.086C128.477 116.777 128.028 116.623 127.404 116.623C126.495 116.623 125.817 117.034 125.372 117.856V125H123.118V114.962H125.242ZM139.808 124.017C139.146 124.796 138.206 125.186 136.987 125.186C135.899 125.186 135.073 124.867 134.51 124.23C133.954 123.593 133.675 122.671 133.675 121.465V114.962H135.93V121.438C135.93 122.712 136.458 123.349 137.516 123.349C138.611 123.349 139.35 122.956 139.733 122.17V114.962H141.988V125H139.863L139.808 124.017ZM148.705 125.186C147.276 125.186 146.116 124.737 145.226 123.84C144.341 122.937 143.899 121.737 143.899 120.241V119.962C143.899 118.96 144.091 118.067 144.474 117.281C144.864 116.49 145.408 115.874 146.107 115.435C146.806 114.996 147.585 114.776 148.445 114.776C149.812 114.776 150.866 115.212 151.608 116.084C152.357 116.957 152.731 118.19 152.731 119.786V120.695H146.172C146.24 121.524 146.515 122.18 146.998 122.662C147.486 123.145 148.098 123.386 148.834 123.386C149.867 123.386 150.708 122.968 151.358 122.133L152.573 123.293C152.171 123.893 151.633 124.36 150.959 124.694C150.291 125.022 149.54 125.186 148.705 125.186ZM148.436 116.585C147.817 116.585 147.316 116.802 146.933 117.235C146.555 117.668 146.314 118.271 146.209 119.044H150.504V118.877C150.455 118.122 150.254 117.553 149.901 117.17C149.549 116.78 149.06 116.585 148.436 116.585Z" fill="white"/>
<rect x="30.75" y="20.75" width="671.5" height="236.5" rx="10.25" stroke="white" stroke-opacity="0.12" stroke-width="0.5"/>
<g filter="url(#filter1_di)">
<path d="M31 37C31 31.3995 31 28.5992 32.0899 26.4601C33.0487 24.5785 34.5785 23.0487 36.4601 22.0899C38.5992 21 41.3995 21 47 21H686C691.601 21 694.401 21 696.54 22.0899C698.422 23.0487 699.951 24.5785 700.91 26.4601C702 28.5992 702 31.3995 702 37V49H31V37Z" fill="#1E1E1E"/>
<path fill-rule="evenodd" clip-rule="evenodd" d="M45 41C48.3137 41 51 38.3137 51 35C51 31.6863 48.3137 29 45 29C41.6863 29 39 31.6863 39 35C39 38.3137 41.6863 41 45 41Z" fill="#FF5E57"/>
<path fill-rule="evenodd" clip-rule="evenodd" d="M65 41C68.3137 41 71 38.3137 71 35C71 31.6863 68.3137 29 65 29C61.6863 29 59 31.6863 59 35C59 38.3137 61.6863 41 65 41Z" fill="#FFBB2E"/>
<path fill-rule="evenodd" clip-rule="evenodd" d="M85 41C88.3137 41 91 38.3137 91 35C91 31.6863 88.3137 29 85 29C81.6863 29 79 31.6863 79 35C79 38.3137 81.6863 41 85 41Z" fill="#38C149"/>
<path d="M300.305 40H302.114L303.828 33.8301H303.929L305.662 40H307.458L309.89 30.8403H307.909L306.494 37.3848H306.392L304.691 30.8403H303.072L301.403 37.3848H301.301L299.873 30.8403H297.88L300.305 40ZM312.269 31.9385C312.84 31.9385 313.31 31.4814 313.31 30.9102C313.31 30.3325 312.84 29.8755 312.269 29.8755C311.697 29.8755 311.221 30.3325 311.221 30.9102C311.221 31.4814 311.697 31.9385 312.269 31.9385ZM311.336 40H313.189V33.0112H311.336V40ZM315.003 40H316.857V35.9565C316.857 35.0107 317.377 34.395 318.234 34.395C319.11 34.395 319.517 34.9155 319.517 35.8994V40H321.37V35.4805C321.37 33.811 320.532 32.8589 318.977 32.8589C317.98 32.8589 317.289 33.335 316.971 34.0903H316.857V33.0112H315.003V40ZM325.609 40.1079C326.593 40.1079 327.336 39.6699 327.697 38.9146H327.812V40H329.665V30.3389H327.812V34.1284H327.697C327.348 33.3667 326.568 32.897 325.609 32.897C323.838 32.897 322.772 34.249 322.772 36.4961V36.5088C322.772 38.7432 323.864 40.1079 325.609 40.1079ZM326.238 38.5718C325.26 38.5718 324.657 37.7974 324.657 36.5088V36.4961C324.657 35.2202 325.26 34.4331 326.238 34.4331C327.215 34.4331 327.831 35.2202 327.831 36.5024V36.5151C327.831 37.7974 327.221 38.5718 326.238 38.5718ZM334.634 40.146C336.786 40.146 338.081 38.7876 338.081 36.5088V36.4961C338.081 34.2363 336.767 32.8589 334.634 32.8589C332.501 32.8589 331.187 34.2427 331.187 36.4961V36.5088C331.187 38.7812 332.482 40.146 334.634 40.146ZM334.634 38.6924C333.644 38.6924 333.085 37.8862 333.085 36.5088V36.4961C333.085 35.1313 333.65 34.3125 334.634 34.3125C335.612 34.3125 336.183 35.1313 336.183 36.4961V36.5088C336.183 37.8862 335.618 38.6924 334.634 38.6924ZM340.574 40H342.517L343.755 35.125H343.869L345.119 40H347.087L348.947 33.0112H347.113L346.072 38.0703H345.957L344.726 33.0112H342.961L341.736 38.0703H341.622L340.581 33.0112H338.708L340.574 40ZM355.921 40H357.838V32.4209H360.586V30.8403H353.172V32.4209H355.921V40ZM362.864 31.9385C363.435 31.9385 363.905 31.4814 363.905 30.9102C363.905 30.3325 363.435 29.8755 362.864 29.8755C362.292 29.8755 361.816 30.3325 361.816 30.9102C361.816 31.4814 362.292 31.9385 362.864 31.9385ZM361.931 40H363.784V33.0112H361.931V40ZM368.499 40.0254C368.855 40.0254 369.198 39.9873 369.426 39.9429V38.5654C369.248 38.5845 369.121 38.5972 368.88 38.5972C368.252 38.5972 367.985 38.3179 367.985 37.6895V34.4077H369.426V33.0112H367.985V31.3418H366.113V33.0112H365.033V34.4077H366.113V38.1147C366.113 39.4731 366.798 40.0254 368.499 40.0254ZM370.98 40H372.833V30.3389H370.98V40ZM377.771 40.146C379.815 40.146 380.716 38.9653 380.932 38.0894L380.945 38.0259H379.218L379.199 38.064C379.072 38.3306 378.621 38.7622 377.809 38.7622C376.825 38.7622 376.209 38.0957 376.19 36.9468H381.002V36.3691C381.002 34.2554 379.732 32.8589 377.695 32.8589C375.657 32.8589 374.356 34.2871 374.356 36.5088V36.5151C374.356 38.7559 375.644 40.146 377.771 40.146ZM377.726 34.249C378.532 34.249 379.11 34.7695 379.224 35.7852H376.209C376.323 34.7949 376.92 34.249 377.726 34.249ZM388.14 42.3169H389.842C388.889 41.1045 388.166 38.6035 388.166 36.3247C388.166 34.0459 388.889 31.5386 389.842 30.3389H388.14C386.858 31.8877 386.255 33.9126 386.255 36.3247C386.255 38.7178 386.852 40.749 388.14 42.3169ZM390.818 40H392.83L393.509 37.7783H396.74L397.419 40H399.438L396.251 30.8403H393.998L390.818 40ZM395.071 32.6685H395.185L396.302 36.3438H393.947L395.071 32.6685ZM403.455 40.146C405.277 40.146 406.368 39.1685 406.559 37.645L406.565 37.6069H404.851L404.839 37.6323C404.674 38.3306 404.223 38.6924 403.461 38.6924C402.471 38.6924 401.919 37.9116 401.919 36.4961V36.4834C401.919 35.0869 402.465 34.3125 403.461 34.3125C404.255 34.3125 404.718 34.7568 404.839 35.436L404.845 35.4487H406.572V35.4297C406.407 33.8682 405.308 32.8589 403.455 32.8589C401.265 32.8589 400.033 34.1855 400.033 36.4834V36.4961C400.033 38.8193 401.271 40.146 403.455 40.146ZM410.931 40.0254C411.287 40.0254 411.629 39.9873 411.858 39.9429V38.5654C411.68 38.5845 411.553 38.5972 411.312 38.5972C410.684 38.5972 410.417 38.3179 410.417 37.6895V34.4077H411.858V33.0112H410.417V31.3418H408.544V33.0112H407.465V34.4077H408.544V38.1147C408.544 39.4731 409.23 40.0254 410.931 40.0254ZM414.294 31.9385C414.865 31.9385 415.335 31.4814 415.335 30.9102C415.335 30.3325 414.865 29.8755 414.294 29.8755C413.723 29.8755 413.247 30.3325 413.247 30.9102C413.247 31.4814 413.723 31.9385 414.294 31.9385ZM413.361 40H415.215V33.0112H413.361V40ZM418.857 40H420.939L423.357 33.0112H421.409L419.974 38.2671H419.86L418.413 33.0112H416.426L418.857 40ZM427.336 40.146C429.38 40.146 430.282 38.9653 430.497 38.0894L430.51 38.0259H428.783L428.764 38.064C428.637 38.3306 428.187 38.7622 427.374 38.7622C426.39 38.7622 425.775 38.0957 425.756 36.9468H430.567V36.3691C430.567 34.2554 429.298 32.8589 427.26 32.8589C425.222 32.8589 423.921 34.2871 423.921 36.5088V36.5151C423.921 38.7559 425.21 40.146 427.336 40.146ZM427.292 34.249C428.098 34.249 428.676 34.7695 428.79 35.7852H425.775C425.889 34.7949 426.486 34.249 427.292 34.249ZM433.384 42.3169C434.667 40.749 435.263 38.7178 435.263 36.3247C435.263 33.9126 434.66 31.8877 433.384 30.3389H431.677C432.629 31.5386 433.353 34.0459 433.353 36.3247C433.353 38.5972 432.629 41.1045 431.677 42.3169H433.384Z" fill="#EBEBF5" fill-opacity="0.6"/>
</g>
</g>
<defs>
<filter id="filter0_dd" x="0" y="0" width="733" height="313" filterUnits="userSpaceOnUse" color-interpolation-filters="sRGB">
<feFlood flood-opacity="0" result="BackgroundImageFix"/>
<feColorMatrix in="SourceAlpha" type="matrix" values="0 0 0 0 0 0 0 0 0 0 0 0 0 0 0 0 0 0 127 0"/>
<feOffset dy="25"/>
<feGaussianBlur stdDeviation="15"/>
<feColorMatrix type="matrix" values="0 0 0 0 0 0 0 0 0 0 0 0 0 0 0 0 0 0 0.35 0"/>
<feBlend mode="normal" in2="BackgroundImageFix" result="effect1_dropShadow"/>
<feColorMatrix in="SourceAlpha" type="matrix" values="0 0 0 0 0 0 0 0 0 0 0 0 0 0 0 0 0 0 127 0"/>
<feOffset/>
<feGaussianBlur stdDeviation="10"/>
<feColorMatrix type="matrix" values="0 0 0 0 0 0 0 0 0 0 0 0 0 0 0 0 0 0 0.15 0"/>
<feBlend mode="normal" in2="effect1_dropShadow" result="effect2_dropShadow"/>
<feBlend mode="normal" in="SourceGraphic" in2="effect2_dropShadow" result="shape"/>
</filter>
<filter id="filter1_di" x="31" y="21" width="671" height="28.5" filterUnits="userSpaceOnUse" color-interpolation-filters="sRGB">
<feFlood flood-opacity="0" result="BackgroundImageFix"/>
<feColorMatrix in="SourceAlpha" type="matrix" values="0 0 0 0 0 0 0 0 0 0 0 0 0 0 0 0 0 0 127 0"/>
<feOffset dy="0.5"/>
<feColorMatrix type="matrix" values="0 0 0 0 0 0 0 0 0 0 0 0 0 0 0 0 0 0 0.15 0"/>
<feBlend mode="normal" in2="BackgroundImageFix" result="effect1_dropShadow"/>
<feBlend mode="normal" in="SourceGraphic" in2="effect1_dropShadow" result="shape"/>
<feColorMatrix in="SourceAlpha" type="matrix" values="0 0 0 0 0 0 0 0 0 0 0 0 0 0 0 0 0 0 127 0" result="hardAlpha"/>
<feOffset dy="-0.5"/>
<feComposite in2="hardAlpha" operator="arithmetic" k2="-1" k3="1"/>
<feColorMatrix type="matrix" values="0 0 0 0 0 0 0 0 0 0 0 0 0 0 0 0 0 0 0.05 0"/>
<feBlend mode="normal" in2="shape" result="effect2_innerShadow"/>
</filter>
</defs>
</svg>
