<svg width="2304" height="353" viewBox="0 0 2304 353" fill="none" xmlns="http://www.w3.org/2000/svg">
<path fill-rule="evenodd" clip-rule="evenodd" d="M1150 249.857L1153.84 248.393C1157.69 246.929 1165.37 244 1173.06 249.125C1181.71 254.25 1189.39 267.429 1197.08 273.286C1204.77 279.143 1212.45 277.679 1220.14 271.821C1228.79 265.964 1236.47 255.714 1244.16 254.25C1251.85 252.786 1259.53 260.107 1267.22 265.232C1275.87 270.357 1283.56 273.286 1291.24 269.625C1298.93 265.964 1306.62 255.714 1314.3 253.518C1322.95 251.321 1330.64 257.179 1338.32 262.304C1346.01 267.429 1353.7 271.821 1361.38 268.893C1370.03 265.964 1377.72 255.714 1385.4 255.714C1393.09 255.714 1400.78 265.964 1408.46 271.821C1417.11 277.679 1424.8 279.143 1432.48 276.946C1440.17 274.75 1447.86 268.893 1455.54 262.304C1464.19 255.714 1471.88 248.393 1479.57 245.464C1487.25 242.536 1494.94 244 1502.63 249.857C1511.27 255.714 1518.96 265.964 1526.65 265.964C1534.33 265.964 1542.02 255.714 1549.71 256.446C1557.39 257.179 1566.04 268.893 1573.73 270.357C1581.41 271.821 1589.1 263.036 1596.79 260.839C1604.47 258.643 1613.12 263.036 1620.81 263.768C1628.49 264.5 1636.18 261.571 1643.87 263.036C1651.55 264.5 1660.2 270.357 1667.89 271.089C1675.58 271.821 1683.26 267.429 1690.95 264.5C1698.64 261.571 1707.28 260.107 1714.97 257.911C1722.66 255.714 1730.34 252.786 1738.03 254.25C1745.72 255.714 1754.36 261.571 1762.05 265.232C1769.74 268.893 1777.42 270.357 1785.11 269.625C1792.8 268.893 1801.45 265.964 1809.13 265.964C1816.82 265.964 1824.51 268.893 1832.19 266.696C1839.88 264.5 1848.53 257.179 1856.21 257.911C1863.9 258.643 1871.59 267.429 1879.27 271.089C1886.96 274.75 1895.61 273.286 1903.29 269.625C1910.98 265.964 1918.67 260.107 1926.35 255.714C1934.04 251.321 1941.73 248.393 1950.37 247.661C1958.06 246.929 1965.75 248.393 1973.43 251.321C1981.12 254.25 1988.81 258.643 1997.45 260.839C2005.14 263.036 2012.83 263.036 2020.51 265.964C2028.2 268.893 2035.89 274.75 2044.54 273.286C2052.22 271.821 2059.91 263.036 2067.6 257.179C2075.28 251.321 2082.97 248.393 2091.62 252.054C2099.3 255.714 2106.99 265.964 2114.68 271.089C2122.36 276.214 2130.05 276.214 2138.7 276.946C2146.38 277.679 2154.07 279.143 2161.76 278.411C2169.44 277.679 2177.13 274.75 2185.78 270.357C2193.46 265.964 2201.15 260.107 2208.84 260.839C2216.53 261.571 2224.21 268.893 2232.86 271.821C2240.55 274.75 2248.23 273.286 2255.92 267.429C2263.61 261.571 2271.29 251.321 2279.94 251.321C2287.63 251.321 2295.31 261.571 2299.16 266.696L2303 271.821V285H2299.16C2295.31 285 2287.63 285 2279.94 285C2271.29 285 2263.61 285 2255.92 285C2248.23 285 2240.55 285 2232.86 285C2224.21 285 2216.53 285 2208.84 285C2201.15 285 2193.46 285 2185.78 285C2177.13 285 2169.44 285 2161.76 285C2154.07 285 2146.38 285 2138.7 285C2130.05 285 2122.36 285 2114.68 285C2106.99 285 2099.3 285 2091.62 285C2082.97 285 2075.28 285 2067.6 285C2059.91 285 2052.22 285 2044.54 285C2035.89 285 2028.2 285 2020.51 285C2012.83 285 2005.14 285 1997.45 285C1988.81 285 1981.12 285 1973.43 285C1965.75 285 1958.06 285 1950.37 285C1941.73 285 1934.04 285 1926.35 285C1918.67 285 1910.98 285 1903.29 285C1895.61 285 1886.96 285 1879.27 285C1871.59 285 1863.9 285 1856.21 285C1848.53 285 1839.88 285 1832.19 285C1824.51 285 1816.82 285 1809.13 285C1801.45 285 1792.8 285 1785.11 285C1777.42 285 1769.74 285 1762.05 285C1754.36 285 1745.72 285 1738.03 285C1730.34 285 1722.66 285 1714.97 285C1707.28 285 1698.64 285 1690.95 285C1683.26 285 1675.58 285 1667.89 285C1660.2 285 1651.55 285 1643.87 285C1636.18 285 1628.49 285 1620.81 285C1613.12 285 1604.47 285 1596.79 285C1589.1 285 1581.41 285 1573.73 285C1566.04 285 1557.39 285 1549.71 285C1542.02 285 1534.33 285 1526.65 285C1518.96 285 1511.27 285 1502.63 285C1494.94 285 1487.25 285 1479.57 285C1471.88 285 1464.19 285 1455.54 285C1447.86 285 1440.17 285 1432.48 285C1424.8 285 1417.11 285 1408.46 285C1400.78 285 1393.09 285 1385.4 285C1377.72 285 1370.03 285 1361.38 285C1353.7 285 1346.01 285 1338.32 285C1330.64 285 1322.95 285 1314.3 285C1306.62 285 1298.93 285 1291.24 285C1283.56 285 1275.87 285 1267.22 285C1259.53 285 1251.85 285 1244.16 285C1236.47 285 1228.79 285 1220.14 285C1212.45 285 1204.77 285 1197.08 285C1189.39 285 1181.71 285 1173.06 285C1165.37 285 1157.69 285 1153.84 285H1150V249.857Z" fill="url(#paint0_linear)"/>
<rect x="1150" y="285" width="1153" height="65" fill="#8DCF76"/>
<path fill-rule="evenodd" clip-rule="evenodd" d="M1 249.857L4.84333 248.393C8.68667 246.929 16.3733 244 24.06 249.125C32.7075 254.25 40.3942 267.429 48.0808 273.286C55.7675 279.143 63.4542 277.679 71.1408 271.821C79.7883 265.964 87.475 255.714 95.1617 254.25C102.848 252.786 110.535 260.107 118.222 265.232C126.869 270.357 134.556 273.286 142.242 269.625C149.929 265.964 157.616 255.714 165.302 253.518C173.95 251.321 181.637 257.179 189.323 262.304C197.01 267.429 204.697 271.821 212.383 268.893C221.031 265.964 228.717 255.714 236.404 255.714C244.091 255.714 251.777 265.964 259.464 271.821C268.112 277.679 275.798 279.143 283.485 276.946C291.172 274.75 298.858 268.893 306.545 262.304C315.193 255.714 322.879 248.393 330.566 245.464C338.253 242.536 345.939 244 353.626 249.857C362.273 255.714 369.96 265.964 377.647 265.964C385.333 265.964 393.02 255.714 400.707 256.446C408.393 257.179 417.041 268.893 424.727 270.357C432.414 271.821 440.101 263.036 447.787 260.839C455.474 258.643 464.122 263.036 471.808 263.768C479.495 264.5 487.182 261.571 494.868 263.036C502.555 264.5 511.202 270.357 518.889 271.089C526.576 271.821 534.263 267.429 541.949 264.5C549.636 261.571 558.283 260.107 565.97 257.911C573.657 255.714 581.343 252.786 589.03 254.25C596.717 255.714 605.364 261.571 613.051 265.232C620.737 268.893 628.424 270.357 636.111 269.625C643.797 268.893 652.445 265.964 660.132 265.964C667.818 265.964 675.505 268.893 683.192 266.696C690.878 264.5 699.526 257.179 707.212 257.911C714.899 258.643 722.586 267.429 730.272 271.089C737.959 274.75 746.607 273.286 754.293 269.625C761.98 265.964 769.667 260.107 777.353 255.714C785.04 251.321 792.727 248.393 801.374 247.661C809.061 246.929 816.747 248.393 824.434 251.321C832.121 254.25 839.807 258.643 848.455 260.839C856.142 263.036 863.828 263.036 871.515 265.964C879.202 268.893 886.888 274.75 895.536 273.286C903.222 271.821 910.909 263.036 918.596 257.179C926.282 251.321 933.969 248.393 942.617 252.054C950.303 255.714 957.99 265.964 965.677 271.089C973.363 276.214 981.05 276.214 989.697 276.946C997.384 277.679 1005.07 279.143 1012.76 278.411C1020.44 277.679 1028.13 274.75 1036.78 270.357C1044.46 265.964 1052.15 260.107 1059.84 260.839C1067.53 261.571 1075.21 268.893 1083.86 271.821C1091.55 274.75 1099.23 273.286 1106.92 267.429C1114.61 261.571 1122.29 251.321 1130.94 251.321C1138.63 251.321 1146.31 261.571 1150.16 266.696L1154 271.821V285H1150.16C1146.31 285 1138.63 285 1130.94 285C1122.29 285 1114.61 285 1106.92 285C1099.23 285 1091.55 285 1083.86 285C1075.21 285 1067.53 285 1059.84 285C1052.15 285 1044.46 285 1036.78 285C1028.13 285 1020.44 285 1012.76 285C1005.07 285 997.384 285 989.697 285C981.05 285 973.363 285 965.677 285C957.99 285 950.303 285 942.617 285C933.969 285 926.282 285 918.596 285C910.909 285 903.222 285 895.536 285C886.888 285 879.202 285 871.515 285C863.828 285 856.142 285 848.455 285C839.807 285 832.121 285 824.434 285C816.747 285 809.061 285 801.374 285C792.727 285 785.04 285 777.353 285C769.667 285 761.98 285 754.293 285C746.607 285 737.959 285 730.272 285C722.586 285 714.899 285 707.212 285C699.526 285 690.878 285 683.192 285C675.505 285 667.818 285 660.132 285C652.445 285 643.797 285 636.111 285C628.424 285 620.737 285 613.051 285C605.364 285 596.717 285 589.03 285C581.343 285 573.657 285 565.97 285C558.283 285 549.636 285 541.949 285C534.263 285 526.576 285 518.889 285C511.202 285 502.555 285 494.868 285C487.182 285 479.495 285 471.808 285C464.122 285 455.474 285 447.787 285C440.101 285 432.414 285 424.727 285C417.041 285 408.393 285 400.707 285C393.02 285 385.333 285 377.647 285C369.96 285 362.273 285 353.626 285C345.939 285 338.253 285 330.566 285C322.879 285 315.193 285 306.545 285C298.858 285 291.172 285 283.485 285C275.798 285 268.112 285 259.464 285C251.777 285 244.091 285 236.404 285C228.717 285 221.031 285 212.383 285C204.697 285 197.01 285 189.323 285C181.637 285 173.95 285 165.302 285C157.616 285 149.929 285 142.242 285C134.556 285 126.869 285 118.222 285C110.535 285 102.848 285 95.1617 285C87.475 285 79.7883 285 71.1408 285C63.4542 285 55.7675 285 48.0808 285C40.3942 285 32.7075 285 24.06 285C16.3733 285 8.68667 285 4.84333 285H1V249.857Z" fill="url(#paint1_linear)"/>
<rect x="1" y="285" width="1153" height="65" fill="#8DCF76"/>
<path d="M1564 350H0L0.507627 344.355V284.824V84.1642H53.3009V224.78H72.0831V200.147H123.861V322.287H137.059V187.83H194.929V292.522H213.711V41.5689H241.631V0H271.581V41.5689H278.18V253.006H285.794V173.974H349.755V301.246H364.476V284.824H434.021V187.317H501.028V282.771H527.932V269.941H562.959V282.771H580.726V343.842H591.893V254.032H655.347V141.129H690.881V119.575H704.079V103.152H724.384V139.589H732.506V283.798H751.796V267.375H769.055V91.349H826.925V99.0469H829.971V315.103H882.764V223.24L897.993 207.845H942.156C947.74 213.148 958.807 223.856 958.4 224.267C957.994 224.677 958.231 283.627 958.4 313.05H966.523V156.525H998.503V138.563H1028.96V153.446H1036.58V312.023H1046.73V200.147H1108.15V283.284H1124.39V160.63H1149.78V170.894H1179.22V282.258H1188.36V126.76H1224.9V105.718H1258.92V124.707H1265.52V307.405H1275.16V225.293H1339.12V249.927H1346.74V171.408H1407.65V334.091H1415.77V203.739H1485.32V289.443H1495.98V190.909H1520.34V171.408H1552.32V187.83H1559.43V280.205H1564V350Z" fill="url(#paint2_linear)"/>
<path d="M2219.35 254.032V141.129H2304V352.5L1564 350L1564.51 344.355V284.824V84.1642H1617.3V224.78H1636.08V200.147H1687.86V322.287H1701.06V187.83H1758.93V292.522H1777.71V41.5689H1805.63V0H1835.58V41.5689H1842.18V253.006H1849.79V173.974H1913.76V301.246H1928.48V284.824H1998.02V187.317H2065.03V282.771H2091.93V269.941H2126.96V282.771H2144.73V343.842H2155.89V254.032H2219.35Z" fill="url(#paint3_linear)"/>
<defs>
<linearGradient id="paint0_linear" x1="1726.5" y1="244" x2="1726.5" y2="285" gradientUnits="userSpaceOnUse">
<stop stop-color="#B3F49C"/>
<stop offset="1" stop-color="#8DCF76"/>
</linearGradient>
<linearGradient id="paint1_linear" x1="577.5" y1="244" x2="577.5" y2="285" gradientUnits="userSpaceOnUse">
<stop stop-color="#B3F49C"/>
<stop offset="1" stop-color="#8DCF76"/>
</linearGradient>
<linearGradient id="paint2_linear" x1="782" y1="0" x2="782" y2="350" gradientUnits="userSpaceOnUse">
<stop stop-color="#CCDDFF"/>
<stop offset="1" stop-color="#819BCD"/>
</linearGradient>
<linearGradient id="paint3_linear" x1="2346" y1="0" x2="2346" y2="350" gradientUnits="userSpaceOnUse">
<stop stop-color="#CCDDFF"/>
<stop offset="1" stop-color="#819BCD"/>
</linearGradient>
</defs>
</svg>
